<?xml version="1.0" encoding="UTF-8" standalone="no"?>

<svg
   version="1.1"
   viewBox="0 0 762.91699 762.21002"
   xmlns="http://www.w3.org/2000/svg"
>
  <g transform="translate(-3101.2266,-91.416763)">
    <g style="display:inline">
      <g style="display:inline">
        <path
           d="m 27577.4,28107.4 c 0,0 -5.2,-6.9 -15.2,-20.5 -5.1,-6.8 -11.4,-15.3 -19,-25.4 -7.8,-9.8 -16.9,-21.2 -27.3,-34.2 -42.2,-51.2 -108.1,-125.2 -207.8,-205.6 -99.4,-79.7 -235.1,-165.8 -412.5,-219.6 -44.5,-12.4 -91.1,-24.3 -140.3,-31.2 -24.4,-4.5 -49.6,-6.2 -75.1,-9.1 -25.6,-1.2 -51.6,-3.7 -78,-3.2 -52.9,-0.9 -107.5,3.3 -163,11.6 -55.6,7.9 -112,21.6 -168.1,40.8 -112.4,37.7 -224.3,100.4 -319.2,191.4 -94.9,90.4 -172.3,208.1 -216.6,343.7 -44.3,134.8 -54.4,290.1 -7.5,437.8 46.7,146.5 144.8,281.7 281.3,371.5 68,44.8 145.7,78.1 228.4,93.7 82.6,16.1 170.6,12.1 253.2,-11.9 41.6,-11.2 81.5,-28.6 119.7,-49.4 38.3,-20.7 73.9,-46.9 106,-77 16.6,-14.6 30.9,-31.7 45.5,-48.3 l 20,-26.8 c 6.8,-8.8 11.9,-18.9 17.9,-28.3 2.9,-4.8 5.9,-9.5 8.6,-14.4 l 7.4,-15.1 c 4.6,-10.2 10.3,-20 13.7,-30.8 3.8,-10.6 7.8,-21.1 11.4,-31.8 l 8.1,-33.1 c 8.7,-44.6 9.5,-90.6 3.3,-135.6 -6.9,-45 -21,-88.7 -41,-129.7 -19.6,-41.2 -47,-78.9 -79.6,-111.3 -32.6,-32.3 -71,-59.7 -114.2,-77.3 -10.8,-4.2 -22,-7.4 -33,-11.2 l -8.3,-2.6 -8.7,-1.6 -17.1,-3.1 c -22.8,-5 -46.5,-5.1 -69.7,-3.6 -46.4,3.4 -93,18.6 -130.1,48.1 -18.3,14.9 -33.9,33.3 -44.3,54.6 -10.4,21.3 -15.3,44.9 -15.1,68.4 0.2,23.5 5.2,47.1 16,67.9 11,20.6 27.9,38.2 48.7,48.7 0,0 -2.3,-1.5 -6.8,-4.4 -4.7,-2.7 -11,-7.7 -18.4,-15.1 -7.3,-7.5 -15,-18.1 -21.7,-32 -6.3,-14 -11.1,-31.4 -12.1,-51.4 -2.7,-39.4 11.6,-92.4 58.5,-127 45.1,-34.8 114.5,-51.6 186.3,-38.1 8.9,1.9 17.9,3.9 27.1,5.8 9,2.5 17.8,6.3 26.8,9.3 4.5,1.7 9.1,3.1 13.5,5.1 4.3,2.2 8.7,4.4 13,6.7 4.4,2.2 8.8,4.5 13.2,6.8 4.5,2 8.8,4.6 12.8,7.6 34.6,20.6 65.1,50.5 91.9,84.7 53.4,68.7 87.9,162.8 83.5,262 -3.6,98.9 -55.6,199.2 -138.8,271.7 -82.7,73 -196.1,120.3 -315.9,125.8 -119.6,5.4 -244.5,-34.6 -348.5,-110.2 -104.4,-75.1 -189.2,-185 -234.3,-312.3 -45.5,-127 -45.7,-271.8 -5.8,-406.8 39.6,-135.4 118.2,-262.1 225.2,-360.1 106.8,-98.2 243.3,-165.4 387.8,-198.4 144.8,-33 298.4,-33.5 445,-1.6 146.8,32.1 286.6,95.5 411.3,179.7 124.9,84.3 235.1,189 327.9,305.7"
           style="display:inline;fill:#3f3b3c;fill-opacity:1;fill-rule:nonzero;stroke:none"
           transform="matrix(0.13333333,0,0,-0.13333333,0,4000)" />
        <path
           d="m 27511.5,27869.9 c 0,0 -10.8,-12.3 -31.5,-35.8 -21.3,-23.1 -52.9,-57.3 -97.6,-97.8 -44.6,-40.6 -101.9,-88.2 -174.7,-136 -36.7,-23.4 -76.7,-47.7 -121.5,-69.5 -44.5,-22.3 -93.3,-43.3 -146.5,-60.3 -53.1,-17.2 -110.3,-31.6 -171.5,-40 -61.2,-8 -125.9,-10.1 -192.7,-4.7 -132.9,10.9 -276.3,52.4 -402.7,140.5 -62.9,43.8 -120.8,99.3 -166.2,166.8 -45.3,67.2 -78,144.5 -95.6,226.6 -16.9,82.2 -17.9,169.3 -0.4,254.1 17.5,84.8 57.4,166.1 115.4,232.4 0,0 -2.9,-4.3 -8.5,-12.6 -5.3,-8.5 -14.6,-20.1 -23.8,-36.9 -19.1,-33.1 -43.1,-84.3 -57.5,-152.8 -14,-68.2 -18.9,-154.1 1.8,-247.3 4.2,-23.5 11.8,-46.8 19,-70.9 3.9,-11.9 8.9,-23.6 13.4,-35.7 4.2,-12.1 10,-23.8 15.8,-35.6 22.6,-47.4 51.7,-94.8 89.8,-136.8 75.5,-85.3 180.8,-155 302.5,-196.2 121.6,-41.4 258.8,-55.8 395.1,-38.6 136.5,17.4 271.9,65.7 396.3,134.1 124.8,68.4 239.3,156.2 341.6,253"
           style="display:inline;fill:#3f3b3c;fill-opacity:1;fill-rule:nonzero;stroke:none"
           transform="matrix(0.13333333,0,0,-0.13333333,0,4000)" />
        <path
           d="m 25772.9,28637.3 c 0,0 -1.4,5.9 -4.2,17.4 -3.3,11.3 -6,28.7 -14.1,50.4 -13.7,43.7 -39.4,107.8 -90.9,178.8 -50.9,70.4 -127.6,149.5 -237.9,206.8 -54.8,28.6 -117.7,51.5 -186.7,62.6 -69,11.1 -144.1,10.2 -220.3,-5.9 -76,-16.6 -153,-47.7 -224.9,-93.6 -34.9,-24.3 -70.4,-49.9 -101.4,-81.7 l -12.1,-11.5 c -3.8,-4 -7.4,-8.3 -11.2,-12.5 -7.4,-8.3 -14.9,-16.7 -22.4,-25.1 -6.8,-8.9 -13.7,-18 -20.6,-27 -3.3,-4.6 -7,-9 -10.2,-13.7 l -9.2,-14.5 c -49.9,-76.4 -85,-168.6 -89.6,-265.7 -2.6,-48.4 3.2,-97.8 18.9,-144.5 15.5,-46.4 42.4,-90.2 77.8,-126.2 35.4,-36 79.9,-64.4 129.6,-77 49.4,-12.6 103.4,-9.3 154.1,8.3 101.4,36.1 189.6,123 227,232 9.3,27.2 15.2,55.6 16.9,84.4 1.4,28.7 -1.6,57.9 -10,85.6 -17.2,54.7 -59,103.8 -113.6,128.2 -13.5,6.5 -28.1,10.2 -42.7,13.2 -14.8,1.8 -30,3 -44.9,0.6 -30,-3.1 -57.8,-19.1 -80.1,-40.4 -21.4,-22.2 -38.5,-50.1 -44.8,-81.4 -7.2,-30.9 -2.5,-64.9 15.1,-92.6 0,0 -1,1.6 -3,4.8 -1.7,3.3 -5.7,7.7 -8.3,14.7 -6.8,13.1 -13,35.4 -10.7,64.4 3,28.7 14.8,64.2 43,96.2 14.2,15.6 32.4,30.3 55.1,40 22.7,9.9 49.2,13.8 76.7,11.4 27.5,-2.3 55.7,-11.6 81.8,-27 26.1,-15.4 50.7,-36.4 70.2,-63.1 41.2,-53 55.5,-129.5 42.8,-203.6 -12.6,-74.5 -49.6,-148.7 -107.4,-209.9 -29.1,-30.2 -63.2,-57.3 -102.3,-78.5 -39.1,-20.6 -82.9,-36.5 -130,-40.4 -23.4,-2.8 -47.4,-1.5 -71.3,1.5 -24,3.5 -47.5,10.4 -70.2,19.4 -45.3,18.8 -86.3,48.2 -120.2,84.8 -33.9,36.6 -61.3,80.2 -78.8,128.7 -17.8,48.2 -25.3,100 -25,151.7 0.6,51.9 9.1,103.8 24.7,153.8 7.6,25 17,49.6 28,73.5 5.3,12.1 12.1,23.5 18.1,35.3 l 9.3,17.6 c 3.2,5.7 7,11.2 10.6,16.8 27.3,45.6 62.4,86.5 100.6,124 38,37.9 81.9,69.9 128.2,97.7 46.1,28.3 96.4,50 148.3,66.5 13.1,3.7 25.8,8.7 39.3,11.3 l 39.9,9 c 27.1,4 54.1,9 81.5,9.8 27.4,2.5 54.9,0.9 82.3,0.1 l 41,-4.5 c 13.7,-1.1 27,-5 40.5,-7.3 53.7,-11.4 106.1,-29 154.6,-54.3 195,-97.9 337.3,-291.8 363.1,-499.4"
           style="display:inline;fill:#3f3b3c;fill-opacity:1;fill-rule:nonzero;stroke:none"
           transform="matrix(0.13333333,0,0,-0.13333333,0,4000)" />
        <path
           d="m 25849.3,28858.2 c 0,0 -1,8.1 -2.7,22.2 -1,7.1 -1.8,15.8 -1.8,25.9 -0.3,10 -1,21.5 0.1,34 1.9,49.9 15.5,118.5 48.7,181.3 31.6,63.4 82.5,118.5 130.8,149.4 12.4,7.2 23.9,14.1 35.2,18.7 11.3,4.5 21.8,8 31.1,10 19.3,3.1 33.6,1.3 41.7,-6.2 0,0 2.9,-4.6 -0.8,-13.8 -3.6,-9.5 -14.3,-22.2 -37.9,-43 -11.7,-10.6 -26.8,-22.8 -45.1,-39.3 -9.6,-7.6 -18.7,-17.8 -30.1,-27.5 -10.2,-11 -22.4,-22.1 -34.1,-35.9 -24.1,-26.9 -50.7,-60.6 -75.8,-105.1 -25.3,-44.5 -48.3,-100.3 -59.3,-170.7"
           style="display:inline;fill:#3f3b3c;fill-opacity:1;fill-rule:nonzero;stroke:none"
           transform="matrix(0.13333333,0,0,-0.13333333,0,4000)" />
        <path
           d="m 25805.7,28812.3 c 0,0 -2,9.7 -5.4,26.6 -3.5,16.8 -9,40.9 -16.9,69.2 -15.5,56.5 -42.8,130.4 -86.2,192.1 -21.3,30.9 -46.7,58 -73.3,80.7 -26.8,22.4 -54.4,40 -79.8,53.4 -25.4,13.2 -48.5,22.2 -66.8,30.5 -18.3,7.9 -31.9,15.2 -37.7,25.7 0,0 -1.5,5.4 7.8,12 4.6,3.1 12.1,7.3 24.2,9.4 6,1.2 13.3,2.4 21.7,2.4 4.3,0.1 8.9,0.1 13.8,0 4.9,-0.5 10.1,-1 15.8,-1.8 22.3,-3.2 50.4,-10.8 82.1,-27.7 31.8,-16.8 67.2,-43.1 100.5,-82.9 33.4,-39.7 62.8,-93.9 80.8,-159.8 18.1,-66.1 24.9,-143.4 19.4,-229.8"
           style="display:inline;fill:#3f3b3c;fill-opacity:1;fill-rule:nonzero;stroke:none"
           transform="matrix(0.13333333,0,0,-0.13333333,0,4000)" />
        <path
           d="m 27245.2,27579.2 c 0,0 -418.9,-539.9 -511,-515.2 0,0 -75.7,45.6 511,515.2"
           style="display:inline;fill:#3f3b3c;fill-opacity:1;fill-rule:nonzero;stroke:none"
           transform="matrix(0.13333333,0,0,-0.13333333,0,4000)" />
        <path
           d="m 25527.3,28679.7 -3.3,-20.7 -6.1,1.4 4.9,20.4 4.5,-1.1"
           style="display:inline;fill:#231f20;fill-opacity:1;fill-rule:nonzero;stroke:none"
           transform="matrix(0.13333333,0,0,-0.13333333,0,4000)" />
        <path
           d="m 25517.4,28618 c -2.1,-13.7 -2.9,-27.5 -4.5,-41.2 l -12.2,1.6 c 2.5,13.7 4.3,27.6 7.4,41.2 l 9.3,-1.6"
           style="display:inline;fill:#231f20;fill-opacity:1;fill-rule:nonzero;stroke:none"
           transform="matrix(0.13333333,0,0,-0.13333333,0,4000)" />
        <path
           d="m 25509.5,28535.5 -1.6,-41.4 -17.9,1 4.3,41.8 15.2,-1.4"
           style="display:inline;fill:#231f20;fill-opacity:1;fill-rule:nonzero;stroke:none"
           transform="matrix(0.13333333,0,0,-0.13333333,0,4000)" />
        <path
           d="m 25507.9,28452.8 1,-41.3 -23.2,-0.5 1.6,42.1 20.6,-0.3"
           style="display:inline;fill:#231f20;fill-opacity:1;fill-rule:nonzero;stroke:none"
           transform="matrix(0.13333333,0,0,-0.13333333,0,4000)" />
        <path
           d="m 25512.2,28370.4 c 1.2,-13.7 1.8,-27.5 4.2,-41 l -27.8,-2.7 c -1.6,14 -1.4,28.1 -1.9,42.2 l 25.5,1.5"
           style="display:inline;fill:#231f20;fill-opacity:1;fill-rule:nonzero;stroke:none"
           transform="matrix(0.13333333,0,0,-0.13333333,0,4000)" />
        <path
           d="m 25522.2,28288.6 c 1.6,-13.6 4.8,-27 7.4,-40.4 l -31.8,-5.5 c -2,14 -4.7,27.8 -5.6,41.9 l 30,4"
           style="display:inline;fill:#231f20;fill-opacity:1;fill-rule:nonzero;stroke:none"
           transform="matrix(0.13333333,0,0,-0.13333333,0,4000)" />
        <path
           d="m 25537.8,28207.9 10.4,-39.7 -35.1,-8.7 -8.9,41.4 33.6,7"
           style="display:inline;fill:#231f20;fill-opacity:1;fill-rule:nonzero;stroke:none"
           transform="matrix(0.13333333,0,0,-0.13333333,0,4000)" />
        <path
           d="m 25559.6,28128.8 13.1,-38.9 -38.8,-12.6 -11,41 36.7,10.5"
           style="display:inline;fill:#231f20;fill-opacity:1;fill-rule:nonzero;stroke:none"
           transform="matrix(0.13333333,0,0,-0.13333333,0,4000)" />
        <path
           d="m 25587.7,28051.8 c 5.2,-12.5 10.1,-25.3 15.7,-37.7 l -43,-17.5 c -5.3,13.1 -9.1,26.8 -13.7,40.2 l 41,15"
           style="display:inline;fill:#231f20;fill-opacity:1;fill-rule:nonzero;stroke:none"
           transform="matrix(0.13333333,0,0,-0.13333333,0,4000)" />
        <path
           d="m 25620.5,27977 8.3,-18.6 9.1,-18.2 -43,-21.4 -9.8,18.9 -8.5,19.5 43.9,19.8"
           style="display:inline;fill:#231f20;fill-opacity:1;fill-rule:nonzero;stroke:none"
           transform="matrix(0.13333333,0,0,-0.13333333,0,4000)" />
        <path
           d="m 25657.7,27901.7 20.5,-35.3 -41.3,-24.6 c -7.3,12.2 -14.8,24.3 -21.5,36.8 l 42.3,23.1"
           style="display:inline;fill:#231f20;fill-opacity:1;fill-rule:nonzero;stroke:none"
           transform="matrix(0.13333333,0,0,-0.13333333,0,4000)" />
        <path
           d="m 25701,27829.7 22.8,-33.7 -39.2,-27.8 -24,35.2 40.4,26.3"
           style="display:inline;fill:#231f20;fill-opacity:1;fill-rule:nonzero;stroke:none"
           transform="matrix(0.13333333,0,0,-0.13333333,0,4000)" />
        <path
           d="m 25749.7,27761.4 c 8.6,-10.5 16.5,-21.6 25.2,-32 l -36.8,-30.9 c -9.4,10.7 -17.8,22.2 -26.5,33.5 l 38.1,29.4"
           style="display:inline;fill:#231f20;fill-opacity:1;fill-rule:nonzero;stroke:none"
           transform="matrix(0.13333333,0,0,-0.13333333,0,4000)" />
        <path
           d="m 25803.6,27697.1 c 4.6,-5 8.9,-10.2 13.6,-15.1 l 14.4,-14.4 -34.2,-33.8 -15.2,14.9 c -4.9,5.2 -9.5,10.6 -14.2,16 l 35.6,32.4"
           style="display:inline;fill:#231f20;fill-opacity:1;fill-rule:nonzero;stroke:none"
           transform="matrix(0.13333333,0,0,-0.13333333,0,4000)" />
        <path
           d="m 25862.3,27637.3 30.7,-26.8 -31.3,-36.5 c -10.8,9.2 -21.6,18.4 -32.1,28 l 32.7,35.3"
           style="display:inline;fill:#231f20;fill-opacity:1;fill-rule:nonzero;stroke:none"
           transform="matrix(0.13333333,0,0,-0.13333333,0,4000)" />
        <path
           d="m 25926.3,27583 32.4,-24.8 -28.3,-38.9 -33.9,25.9 29.8,37.8"
           style="display:inline;fill:#231f20;fill-opacity:1;fill-rule:nonzero;stroke:none"
           transform="matrix(0.13333333,0,0,-0.13333333,0,4000)" />
        <path
           d="m 25994.3,27533.7 c 11.5,-7.2 22.4,-15.4 34.1,-22.3 l -25.2,-41 c -12.4,7 -23.9,15.4 -35.7,23.3 l 26.8,40"
           style="display:inline;fill:#231f20;fill-opacity:1;fill-rule:nonzero;stroke:none"
           transform="matrix(0.13333333,0,0,-0.13333333,0,4000)" />
        <path
           d="m 26794.5,27340.2 -20.8,-2.1 0.9,-6.2 20.7,3.8 -0.8,4.5"
           style="display:inline;fill:#231f20;fill-opacity:1;fill-rule:nonzero;stroke:none"
           transform="matrix(0.13333333,0,0,-0.13333333,0,4000)" />
        <path
           d="m 26732.3,27333.7 c -13.7,-1.3 -27.6,-1.3 -41.4,-2.1 l 0.9,-12.3 c 13.9,1.7 27.8,2.8 41.6,5.1 l -1.1,9.3"
           style="display:inline;fill:#231f20;fill-opacity:1;fill-rule:nonzero;stroke:none"
           transform="matrix(0.13333333,0,0,-0.13333333,0,4000)" />
        <path
           d="m 26649.5,27330.4 -41.4,0.8 v -18 l 41.9,2 -0.5,15.2"
           style="display:inline;fill:#231f20;fill-opacity:1;fill-rule:nonzero;stroke:none"
           transform="matrix(0.13333333,0,0,-0.13333333,0,4000)" />
        <path
           d="m 26566.8,27333.4 -41.1,3.3 -1.8,-23.1 42.1,-0.7 0.8,20.5"
           style="display:inline;fill:#231f20;fill-opacity:1;fill-rule:nonzero;stroke:none"
           transform="matrix(0.13333333,0,0,-0.13333333,0,4000)" />
        <path
           d="m 26484.8,27342.3 c -13.6,2 -27.3,3.3 -40.7,6.4 l -4.2,-27.6 c 13.9,-2.3 28,-2.9 42,-4.2 l 2.9,25.4"
           style="display:inline;fill:#231f20;fill-opacity:1;fill-rule:nonzero;stroke:none"
           transform="matrix(0.13333333,0,0,-0.13333333,0,4000)" />
        <path
           d="m 26403.7,27356.8 c -13.5,2.3 -26.7,6.3 -40,9.6 l -7.1,-31.5 c 13.8,-2.7 27.5,-6.1 41.5,-7.8 l 5.6,29.7"
           style="display:inline;fill:#231f20;fill-opacity:1;fill-rule:nonzero;stroke:none"
           transform="matrix(0.13333333,0,0,-0.13333333,0,4000)" />
        <path
           d="m 26324,27376.8 -39.1,12.6 -10.6,-34.5 40.9,-11.1 8.8,33"
           style="display:inline;fill:#231f20;fill-opacity:1;fill-rule:nonzero;stroke:none"
           transform="matrix(0.13333333,0,0,-0.13333333,0,4000)" />
        <path
           d="m 26246.2,27403.1 -38.1,15.1 -14.7,-37.9 40.3,-13.3 12.5,36.1"
           style="display:inline;fill:#231f20;fill-opacity:1;fill-rule:nonzero;stroke:none"
           transform="matrix(0.13333333,0,0,-0.13333333,0,4000)" />
        <path
           d="m 26170.9,27435.3 c -12.2,6 -24.7,11.5 -36.8,17.8 l -19.9,-42 c 12.9,-6 26.3,-10.6 39.5,-15.9 l 17.2,40.1"
           style="display:inline;fill:#231f20;fill-opacity:1;fill-rule:nonzero;stroke:none"
           transform="matrix(0.13333333,0,0,-0.13333333,0,4000)" />
        <path
           d="m 26098.1,27472.3 -18.2,9.2 -17.7,10.2 -23.7,-41.8 18.3,-10.9 19,-9.5 22.3,42.8"
           style="display:inline;fill:#231f20;fill-opacity:1;fill-rule:nonzero;stroke:none"
           transform="matrix(0.13333333,0,0,-0.13333333,0,4000)" />
        <path
           d="m 23259.2,28829.9 1115.5,-44.6 c 0,0 -65.3,41.9 -0.1,86.3 l -1115.4,-41.7"
           style="display:inline;fill:#3f3b3c;fill-opacity:1;fill-rule:nonzero;stroke:none"
           transform="matrix(0.13333333,0,0,-0.13333333,0,4000)" />
        <path
           d="m 26112.4,28118.3 8,-13.2 -5.5,-2.8 -6.7,14 4.2,2"
           style="display:inline;fill:#231f20;fill-opacity:1;fill-rule:nonzero;stroke:none"
           transform="matrix(0.13333333,0,0,-0.13333333,0,4000)" />
        <path
           d="m 26136.3,28079 c 5.5,-8.5 12.1,-16.4 18,-24.6 l -10.2,-7 c -5.3,9 -11.2,17.6 -15.9,26.8 l 8.1,4.8"
           style="display:inline;fill:#231f20;fill-opacity:1;fill-rule:nonzero;stroke:none"
           transform="matrix(0.13333333,0,0,-0.13333333,0,4000)" />
        <path
           d="m 26173.1,28030.6 20.4,-22.4 -13.5,-11.9 -18.9,24.9 12,9.4"
           style="display:inline;fill:#231f20;fill-opacity:1;fill-rule:nonzero;stroke:none"
           transform="matrix(0.13333333,0,0,-0.13333333,0,4000)" />
        <path
           d="m 26215.1,27987.1 c 7.5,-6.8 14.8,-13.7 22.4,-20.3 l -15.6,-17.2 c -7.3,7.5 -14.3,15.4 -21.4,23 l 14.6,14.5"
           style="display:inline;fill:#231f20;fill-opacity:1;fill-rule:nonzero;stroke:none"
           transform="matrix(0.13333333,0,0,-0.13333333,0,4000)" />
        <path
           d="m 26261.4,27948.4 c 7.8,-6.2 15.8,-12.3 24.5,-17.4 l -16.4,-22.6 c -8.6,6.1 -16.5,13 -24.2,20.2 l 16.1,19.8"
           style="display:inline;fill:#231f20;fill-opacity:1;fill-rule:nonzero;stroke:none"
           transform="matrix(0.13333333,0,0,-0.13333333,0,4000)" />
        <path
           d="m 26311.2,27914.7 c 8.3,-5.5 17.5,-9.7 26.2,-14.6 l -16.3,-27.9 c -8.8,5.8 -18.1,10.8 -26.5,17.2 l 16.6,25.3"
           style="display:inline;fill:#231f20;fill-opacity:1;fill-rule:nonzero;stroke:none"
           transform="matrix(0.13333333,0,0,-0.13333333,0,4000)" />
        <path
           d="m 26363.9,27886.2 27.4,-12.2 -15.1,-32.8 -28.1,14.7 15.8,30.3"
           style="display:inline;fill:#231f20;fill-opacity:1;fill-rule:nonzero;stroke:none"
           transform="matrix(0.13333333,0,0,-0.13333333,0,4000)" />
        <path
           d="m 26419.2,27863.1 c 9.4,-3.2 18.8,-6.5 28.2,-9.8 l -13.6,-38.4 c -9.7,4.3 -19.4,8.6 -29,12.8 l 14.4,35.4"
           style="display:inline;fill:#231f20;fill-opacity:1;fill-rule:nonzero;stroke:none"
           transform="matrix(0.13333333,0,0,-0.13333333,0,4000)" />
        <path
           d="m 26476.3,27845.7 c 9.7,-2.3 19.2,-5.4 29,-7 l -11.7,-45 c -10.3,2.4 -20.1,6.8 -30.1,10.2 l 12.8,41.8"
           style="display:inline;fill:#231f20;fill-opacity:1;fill-rule:nonzero;stroke:none"
           transform="matrix(0.13333333,0,0,-0.13333333,0,4000)" />
        <path
           d="m 26534.5,27832.7 c 9.6,-2.4 19.4,-3.8 29.2,-5.5 l -8.1,-47.4 c -10.5,1.5 -21,3 -31.2,5.8 l 10.1,47.1"
           style="display:inline;fill:#231f20;fill-opacity:1;fill-rule:nonzero;stroke:none"
           transform="matrix(0.13333333,0,0,-0.13333333,0,4000)" />
        <path
           d="m 26594.8,27822.2 c 9.9,-0.7 19.8,-1.6 29.7,-2.7 l -3.9,-47.9 c -10.6,0.8 -21.2,1.7 -31.7,2.8 l 5.9,47.8"
           style="display:inline;fill:#231f20;fill-opacity:1;fill-rule:nonzero;stroke:none"
           transform="matrix(0.13333333,0,0,-0.13333333,0,4000)" />
        <path
           d="m 26655.9,27817.6 c 9.9,0 19.9,-0.2 29.8,-0.6 l 0.3,-48.1 c -10.6,0.1 -21.2,0.2 -31.8,0.6 l 1.7,48.1"
           style="display:inline;fill:#231f20;fill-opacity:1;fill-rule:nonzero;stroke:none"
           transform="matrix(0.13333333,0,0,-0.13333333,0,4000)" />
        <path
           d="m 26717.1,27818.3 c 9.9,0.9 19.8,0.7 29.7,1.9 l 4.7,-47.8 c -10.5,-1.6 -21.2,-1.6 -31.8,-2.2 l -2.6,48.1"
           style="display:inline;fill:#231f20;fill-opacity:1;fill-rule:nonzero;stroke:none"
           transform="matrix(0.13333333,0,0,-0.13333333,0,4000)" />
        <path
           d="m 26778,27824.3 c 9.8,1.1 19.5,3.1 29.3,4.9 l 9,-47.2 c -10.3,-2.3 -20.7,-4.5 -31.3,-5.4 l -7,47.7"
           style="display:inline;fill:#231f20;fill-opacity:1;fill-rule:nonzero;stroke:none"
           transform="matrix(0.13333333,0,0,-0.13333333,0,4000)" />
        <path
           d="m 26838.3,27835.5 c 9.6,2.7 19.3,5.2 28.9,7.6 l 12.7,-46.4 c -10.2,-2.8 -20.4,-5.6 -30.7,-8.1 l -10.9,46.9"
           style="display:inline;fill:#231f20;fill-opacity:1;fill-rule:nonzero;stroke:none"
           transform="matrix(0.13333333,0,0,-0.13333333,0,4000)" />
        <path
           d="m 26897.6,27852 c 9.5,3.3 19,6.3 28.5,9.3 l 16,-45.4 c -10,-3.4 -20,-6.7 -30,-9.9 l -14.5,46"
           style="display:inline;fill:#231f20;fill-opacity:1;fill-rule:nonzero;stroke:none"
           transform="matrix(0.13333333,0,0,-0.13333333,0,4000)" />
        <path
           d="m 26955.7,27872.6 c 9.2,4 18.7,7.1 27.8,11.3 l 19.1,-44.1 c -9.4,-4.7 -19.4,-8.1 -29.2,-11.9 l -17.7,44.7"
           style="display:inline;fill:#231f20;fill-opacity:1;fill-rule:nonzero;stroke:none"
           transform="matrix(0.13333333,0,0,-0.13333333,0,4000)" />
        <path
           d="m 27455,28233.6 -10.6,-11.4 4.8,-4 9.4,12.5 -3.6,2.9"
           style="display:inline;fill:#231f20;fill-opacity:1;fill-rule:nonzero;stroke:none"
           transform="matrix(0.13333333,0,0,-0.13333333,0,4000)" />
        <path
           d="m 27423.5,28199.7 c -7,-7.5 -14.3,-14.7 -21.4,-22 l 9.2,-8.3 c 6.5,8.1 13.1,16 19.4,24.1 l -7.2,6.2"
           style="display:inline;fill:#231f20;fill-opacity:1;fill-rule:nonzero;stroke:none"
           transform="matrix(0.13333333,0,0,-0.13333333,0,4000)" />
        <path
           d="m 27380.5,28155.9 -22.1,-21.2 12.9,-12.5 20.4,23.3 -11.2,10.4"
           style="display:inline;fill:#231f20;fill-opacity:1;fill-rule:nonzero;stroke:none"
           transform="matrix(0.13333333,0,0,-0.13333333,0,4000)" />
        <path
           d="m 27336,28113.9 -22.8,-20.5 16,-16.8 21.2,22.6 -14.4,14.7"
           style="display:inline;fill:#231f20;fill-opacity:1;fill-rule:nonzero;stroke:none"
           transform="matrix(0.13333333,0,0,-0.13333333,0,4000)" />
        <path
           d="m 27290,28073.7 c -7.9,-6.5 -15.4,-13.4 -23.5,-19.5 l 18.3,-21.1 c 7.7,6.9 14.9,14.5 22.3,21.6 l -17.1,19"
           style="display:inline;fill:#231f20;fill-opacity:1;fill-rule:nonzero;stroke:none"
           transform="matrix(0.13333333,0,0,-0.13333333,0,4000)" />
        <path
           d="m 27242.5,28035.5 c -7.9,-6.4 -16.1,-12.4 -24.4,-18.3 l 20,-25.4 c 8,6.7 16,13.3 23.6,20.4 l -19.2,23.3"
           style="display:inline;fill:#231f20;fill-opacity:1;fill-rule:nonzero;stroke:none"
           transform="matrix(0.13333333,0,0,-0.13333333,0,4000)" />
        <path
           d="m 27193.6,27999.3 -25.2,-16.9 20.9,-29.5 24.8,19 -20.5,27.4"
           style="display:inline;fill:#231f20;fill-opacity:1;fill-rule:nonzero;stroke:none"
           transform="matrix(0.13333333,0,0,-0.13333333,0,4000)" />
        <path
           d="m 27142.9,27966 c -8.6,-5.1 -17.3,-10.2 -26,-15.4 l 21.7,-34.4 25.6,18.1 -21.3,31.7"
           style="display:inline;fill:#231f20;fill-opacity:1;fill-rule:nonzero;stroke:none"
           transform="matrix(0.13333333,0,0,-0.13333333,0,4000)" />
        <path
           d="m 27090.3,27936.3 c -8.9,-4.7 -17.9,-9.3 -26.7,-14 l 22.4,-40.7 c 9,5.5 17.7,11.4 26.5,17.1 l -22.2,37.6"
           style="display:inline;fill:#231f20;fill-opacity:1;fill-rule:nonzero;stroke:none"
           transform="matrix(0.13333333,0,0,-0.13333333,0,4000)" />
        <path
           d="m 27036.5,27909.2 c -8.9,-4.5 -17.7,-9.2 -26.9,-13.3 l 20.6,-43.5 c 9.7,4.1 19,8.9 28.2,13.9 l -21.9,42.9"
           style="display:inline;fill:#231f20;fill-opacity:1;fill-rule:nonzero;stroke:none"
           transform="matrix(0.13333333,0,0,-0.13333333,0,4000)" />
        <path
           d="m 27676.2,28011.4 c 0,0 9.7,31.4 27.3,88.3 8.7,28.6 19,63.6 28.2,104.6 9.2,41 16.7,88.3 16.6,140.1 -0.2,51.4 -11.2,107.3 -38.3,160.7 -13.6,26.5 -31.1,52 -53.3,73.8 -22.3,21.5 -49.3,39 -80.1,49.2 -30.4,10.4 -65.1,12.5 -95.7,2.1 -30,-9.8 -57.2,-36.3 -64.2,-69.1 -3.6,-16.2 -1.1,-33.3 7.4,-49.1 8.4,-15.5 22.4,-28.8 39.9,-34.2 17.1,-5.9 37.7,-1.7 53.8,10.7 16,12 28.2,32.3 25.6,54.8 -0.6,0.1 5,-10.2 0.4,-30.2 -2.5,-9.7 -8.2,-21.3 -18.5,-32.1 -10.2,-10.6 -25.5,-20.7 -45.9,-23.2 -40.8,-5.1 -91.8,30.9 -97,90.2 -2.1,28.9 8.6,59.5 28.7,83.7 19.7,24.7 50.5,42.7 83.5,49.5 66.6,14.1 140.8,-10.4 194.9,-59.6 54.5,-49.3 88.5,-119.9 100.9,-193.9 12.7,-75.4 -0.5,-151.3 -23.2,-220.9 -23.2,-69.9 -56.7,-134 -91,-195.4"
           style="display:inline;fill:#3f3b3c;fill-opacity:1;fill-rule:nonzero;stroke:none"
           transform="matrix(0.13333333,0,0,-0.13333333,0,4000)" />
        <path
           d="m 27772.7,27916.8 c 0,0 -6.7,-5.5 -19.8,-16.3 -6.5,-5.4 -14.6,-12.1 -24.3,-20.2 -9.4,-8.3 -20.4,-17.9 -32.8,-28.9 -49,-44.5 -119.6,-113.3 -195.2,-214.7 -75,-101.1 -154.7,-237.3 -202.2,-411.1 -10.8,-43.5 -21.1,-88.9 -26.5,-136.6 -3.8,-23.7 -4.8,-48.1 -7,-72.7 -0.6,-24.8 -2.5,-49.9 -1.4,-75.4 0.2,-50.9 5.5,-103.3 14.4,-156.3 8.7,-53.1 22.8,-106.7 41.9,-159.8 37.7,-106.5 98.5,-211.1 184.7,-299.1 85.8,-88.2 197.2,-160 323.9,-200.9 126.2,-40.8 270,-49.5 405.1,-6.9 134.6,42.5 260.9,132.9 345,258.4 42,62.5 73.4,133.5 88.6,209.1 15.7,75.5 13.3,155.2 -7.5,231.9 -9.6,38.5 -25.2,75.6 -43.7,111.2 -18.4,35.8 -42,69.1 -69.1,99.2 -13.1,15.6 -28.4,28.9 -43.4,42.8 l -24.2,18.8 c -7.9,6.5 -17,11.2 -25.5,17 -4.3,2.7 -8.5,5.6 -13,8.1 l -13.7,7 c -9.2,4.5 -18,10 -27.8,13.2 l -28.8,11.2 -29.7,8 c -40.2,8.8 -82.3,10.7 -124.1,6.2 -41.8,-5.4 -83,-17.4 -122,-35 -39.2,-17.3 -75.3,-41.9 -106.6,-71.6 -31.3,-29.7 -58.2,-64.9 -76,-104.9 -4.2,-10 -7.6,-20.4 -11.5,-30.7 l -2.7,-7.7 -1.8,-8.1 -3.5,-16.1 c -5.5,-21.3 -6.3,-43.6 -5.7,-65.7 1.7,-44.1 14.6,-88.8 41.2,-124.8 13.4,-17.8 30.3,-33.3 50.1,-43.9 19.8,-10.6 42.3,-16.3 65.1,-17 22.7,-0.6 46,3.2 66.9,13.1 20.8,9.9 39.1,25.9 50.4,46.5 0,0 -1.3,-2.4 -4.1,-7.1 -2.5,-4.8 -7.3,-11.4 -14.5,-19.2 -7.4,-7.9 -18,-16.1 -32,-23.6 -14.2,-7 -32,-12.7 -52.7,-14.6 -20.6,-1.8 -44.4,-0.2 -68.6,8.7 -12.3,4 -24.1,10.8 -35.8,18.7 -11.1,8.5 -22,18.3 -31.7,30 -38.7,46.9 -58.8,119.5 -47,196.2 1.8,9.5 3.6,19.2 5.4,29 2.3,9.6 6,19.1 9,28.8 1.6,4.8 3,9.8 5,14.6 2.2,4.7 4.4,9.3 6.7,14.1 2.2,4.7 4.5,9.4 6.8,14.2 2.1,4.9 4.6,9.6 7.7,14 21,37.5 51.8,70.9 87.5,100.4 71.6,58.8 170.4,98.4 278.6,96.3 108.7,-1.3 219.9,-56.1 300.1,-144.8 80.9,-88.4 134,-209.2 142.1,-339.9 7.9,-131 -34.3,-267.4 -114.8,-380.5 -80.1,-113.4 -197.4,-205.5 -335.5,-255.2 -138.5,-50.3 -295.4,-50.3 -440.1,-7.2 -145,42.9 -279.4,127.4 -382.9,242.4 -103.9,115.3 -172.7,260.7 -204.6,412.8 -32,152.2 -28.8,311.8 8.3,462.6 37.3,150.9 107,291.9 197.2,415.2 90.3,123.5 200.8,230 322.1,316.8"
           style="display:inline;fill:#3f3b3c;fill-opacity:1;fill-rule:nonzero;stroke:none"
           transform="matrix(0.13333333,0,0,-0.13333333,0,4000)" />
        <path
           d="m 27535.1,27850.8 c 0,0 -11.1,-12 -32.3,-35.1 -20.7,-23.5 -51.6,-57.9 -88.1,-105.3 -36.5,-47.2 -79.1,-106.9 -121.5,-180.6 -20.7,-37.1 -42.2,-77.2 -61.2,-121.6 -19.5,-44 -37.7,-91.8 -52.2,-143.3 -14.7,-51.3 -26.7,-106.4 -33.4,-164.3 -6.1,-57.9 -7.2,-119 -1.4,-181.8 11.4,-125.2 49.9,-259.3 129.4,-378.3 39.5,-59.2 89.8,-114.5 150.4,-158.4 60.7,-44.1 131.8,-78 208.6,-98.7 77,-20.1 159.9,-26.1 242.8,-15 82.9,11.3 165.1,43.4 236.4,95.5 0,0 -4,-3.3 -11.8,-9.6 -8,-5.9 -18.9,-16.3 -35.1,-27 -31.9,-21.8 -82.1,-50.2 -151.8,-69.8 -69.3,-19 -158.5,-29.6 -257.4,-12.8 -24.9,3.2 -49.8,9.9 -75.6,16.4 -12.8,3.6 -25.4,8.3 -38.4,12.5 -13.1,4 -25.8,9.5 -38.6,15.1 -51.4,22 -103.4,51.3 -150.3,91.1 -94.4,78.3 -171.9,190.3 -217,319.9 -45.4,129.4 -60,275.4 -38.9,419.5 21.3,144 77.1,283.5 154.6,407.2 77.4,124 175.6,232.9 282.8,324.4"
           style="display:inline;fill:#3f3b3c;fill-opacity:1;fill-rule:nonzero;stroke:none"
           transform="matrix(0.13333333,0,0,-0.13333333,0,4000)" />
        <path
           d="m 28303,26110.7 c 0,0 5.9,-1 17.6,-3 11.5,-2.4 29.2,-3.8 51.5,-10.5 44.8,-10.8 111.3,-32.6 186.8,-81.2 74.9,-48.1 160.7,-123.1 225.5,-236.3 32.2,-56.3 59,-121.8 73.2,-195.2 14.3,-73.2 15.6,-153.9 0.2,-235.9 -15.7,-82 -47.4,-165.2 -95.6,-243.3 -25.5,-38 -52.7,-76.6 -86.7,-110.5 l -12.4,-13.2 c -4.2,-4.2 -8.8,-8.2 -13.3,-12.3 -9,-8.2 -18,-16.4 -27,-24.6 -9.7,-7.5 -19.5,-15 -29.3,-22.6 -4.9,-3.7 -9.7,-7.7 -14.8,-11.3 l -15.7,-10.1 c -83.4,-55 -183.7,-93.8 -292.6,-98.8 -54.2,-2.7 -110.4,4 -164.2,22.6 -54,18.6 -104,50.1 -145.3,91.8 -41.1,41.5 -73.9,94.3 -87.9,154.1 -14.2,59.8 -8.5,123.8 13.2,181.3 44.1,114.5 142.8,207.4 263.7,244.5 30.2,9.2 61.9,14.5 94,15.2 32.1,0.4 64.6,-4.3 95.4,-15 61.8,-22.4 113.2,-71 137.4,-132.4 6.4,-15.1 9.8,-31.5 12.2,-47.8 1.4,-16.5 1.7,-33.3 -1.7,-49.6 -5.2,-33.2 -24.4,-62.7 -48.2,-84.9 -24.8,-21.5 -54.8,-37.6 -87.4,-42.2 -32.3,-5.7 -66.6,1.4 -93,20.4 0,0 1.7,-0.9 5,-2.7 3.4,-1.5 7.9,-5.1 14.9,-7.3 13.3,-5.8 35.2,-10.6 62.8,-6.9 27.3,4.3 60.7,17.5 89.2,45.4 14,13.9 26.6,31.4 34.4,52.2 7.9,20.6 10.3,44.8 7,69.3 -6.3,49.3 -38.1,100.2 -87,133.7 -48.4,34.7 -116.3,44.8 -183.1,31.1 -67.1,-13.6 -134.2,-49.8 -188,-103.7 -26.7,-27.2 -50.4,-58.7 -68.3,-93.8 -17.4,-35.3 -30.3,-73.9 -32.7,-114 -3.3,-40.1 3.5,-80.9 19.9,-118.8 16.6,-38 42.2,-72.8 74.3,-101.8 32.1,-28.8 70.4,-52.2 112.2,-66.7 41.7,-15 87.4,-21.3 133.4,-20.8 92.3,1.6 187,31.4 269.1,83 41.8,24.8 79.6,56.9 114.5,91.8 35.2,34.8 65.2,75.1 91.7,117.7 26.9,42.5 47.8,88.9 64,136.8 3.7,12.2 8.6,24 11.3,36.4 l 9.2,37 c 4.2,25.1 9.5,50.1 10.8,75.6 3.1,25.4 2.1,51 2.2,76.5 l -3.1,38.2 c -0.5,12.9 -3.9,25.3 -5.6,38 -9.1,50.4 -23.8,100.3 -46,147 -85.7,188.1 -263.2,336.7 -467.7,377.6"
           style="display:inline;fill:#3f3b3c;fill-opacity:1;fill-rule:nonzero;stroke:none"
           transform="matrix(0.13333333,0,0,-0.13333333,0,4000)" />
        <path
           d="m 28524,26184.7 c 0,0 8.1,1.6 22,4.4 7,1.2 15.4,3 24.8,5.8 9.5,2.6 20.2,5 31.5,9.3 45.6,14.9 102.9,42.6 152.5,80.7 50.5,37 92.2,83.4 124,120.6 7.4,9.7 15.4,18.1 22.2,26.2 6.7,8.1 13.4,15.2 19.9,21 12,12.3 24,19.6 35.4,19.6 0,0 5.4,-1.1 8.4,-10.6 2.7,-9.4 4.4,-28.2 -9.2,-61.6 -7.1,-16.5 -17.7,-36.8 -35.2,-59.6 -8.2,-11.9 -19.6,-23 -31.3,-36 -12.9,-11.8 -26.7,-25.2 -43.8,-37.3 -33.5,-24.8 -76.7,-49.3 -130.8,-66.3 -26.9,-8.9 -56.8,-14.7 -88.6,-18.4 -32.1,-3 -66.3,-2.5 -101.8,2.2"
           style="display:inline;fill:#3f3b3c;fill-opacity:1;fill-rule:nonzero;stroke:none"
           transform="matrix(0.13333333,0,0,-0.13333333,0,4000)" />
        <path
           d="m 28477.9,26141.1 c 0,0 9.9,0.6 27.1,1.6 17.3,0.9 42.1,1.4 72.2,0.1 59.8,-2.5 142.8,-14.2 220.4,-53.6 38.8,-19.5 75,-46.6 104,-77.5 29,-31 51.1,-66 64.1,-99.6 13.1,-33.7 17,-65.6 14.8,-89.3 -2.6,-23.9 -10.8,-39.4 -20.9,-44.6 0,0 -5.4,-0.9 -12.3,7.6 -7,8.5 -14.5,26.1 -28.7,59.6 -7.5,16.6 -17,37.3 -32.1,61.9 -15,24.5 -35.8,53.1 -66.6,83.2 -30.6,29.9 -72.5,60.5 -129.2,87.1 -56.6,26.5 -127.7,48.4 -212.8,63.5"
           style="display:inline;fill:#3f3b3c;fill-opacity:1;fill-rule:nonzero;stroke:none"
           transform="matrix(0.13333333,0,0,-0.13333333,0,4000)" />
        <path
           d="m 27242.8,27586.1 c 0,0 -418.6,-540.2 -510.7,-515.5 0,0 -75.8,45.5 510.7,515.5"
           style="display:inline;fill:#3f3b3c;fill-opacity:1;fill-rule:nonzero;stroke:none"
           transform="matrix(0.13333333,0,0,-0.13333333,0,4000)" />
        <path
           d="m 28346.6,25861.4 -20.4,-4.9 -1.3,6.1 20.7,3.3 1,-4.5"
           style="display:inline;fill:#231f20;fill-opacity:1;fill-rule:nonzero;stroke:none"
           transform="matrix(0.13333333,0,0,-0.13333333,0,4000)" />
        <path
           d="m 28285.4,25846.7 c -13.6,-3.1 -27.5,-4.9 -41.2,-7.4 l -1.6,12.3 c 13.7,1.5 27.6,2.3 41.2,4.4 l 1.6,-9.3"
           style="display:inline;fill:#231f20;fill-opacity:1;fill-rule:nonzero;stroke:none"
           transform="matrix(0.13333333,0,0,-0.13333333,0,4000)" />
        <path
           d="m 28202.7,25832.9 -41.8,-4.2 -1,17.9 41.4,1.5 1.4,-15.2"
           style="display:inline;fill:#231f20;fill-opacity:1;fill-rule:nonzero;stroke:none"
           transform="matrix(0.13333333,0,0,-0.13333333,0,4000)" />
        <path
           d="m 28118.9,25826 -42.1,-1.7 0.5,23.2 41.3,-1 0.3,-20.5"
           style="display:inline;fill:#231f20;fill-opacity:1;fill-rule:nonzero;stroke:none"
           transform="matrix(0.13333333,0,0,-0.13333333,0,4000)" />
        <path
           d="m 28034.7,25825.3 c -14.1,0.5 -28.2,0.3 -42.2,1.9 l 2.7,27.8 c 13.6,-2.3 27.3,-2.9 41,-4.2 l -1.5,-25.5"
           style="display:inline;fill:#231f20;fill-opacity:1;fill-rule:nonzero;stroke:none"
           transform="matrix(0.13333333,0,0,-0.13333333,0,4000)" />
        <path
           d="m 27950.4,25830.9 c -14,0.9 -27.9,3.5 -41.8,5.5 l 5.4,31.8 c 13.4,-2.5 26.8,-5.8 40.4,-7.3 l -4,-30"
           style="display:inline;fill:#231f20;fill-opacity:1;fill-rule:nonzero;stroke:none"
           transform="matrix(0.13333333,0,0,-0.13333333,0,4000)" />
        <path
           d="m 27866.7,25842.9 -41.4,8.9 8.7,35.1 39.7,-10.5 -7,-33.5"
           style="display:inline;fill:#231f20;fill-opacity:1;fill-rule:nonzero;stroke:none"
           transform="matrix(0.13333333,0,0,-0.13333333,0,4000)" />
        <path
           d="m 27784.1,25861.6 -40.9,11 12.6,38.7 38.8,-13 -10.5,-36.7"
           style="display:inline;fill:#231f20;fill-opacity:1;fill-rule:nonzero;stroke:none"
           transform="matrix(0.13333333,0,0,-0.13333333,0,4000)" />
        <path
           d="m 27702.6,25885.3 c -13.4,4.6 -27.1,8.5 -40.2,13.7 l 17.5,43 c 12.4,-5.5 25.2,-10.4 37.7,-15.7 l -15,-41"
           style="display:inline;fill:#231f20;fill-opacity:1;fill-rule:nonzero;stroke:none"
           transform="matrix(0.13333333,0,0,-0.13333333,0,4000)" />
        <path
           d="m 27623,25915.3 -19.5,8.4 -18.9,9.8 21.4,43.1 18.2,-9.2 18.6,-8.2 -19.8,-43.9"
           style="display:inline;fill:#231f20;fill-opacity:1;fill-rule:nonzero;stroke:none"
           transform="matrix(0.13333333,0,0,-0.13333333,0,4000)" />
        <path
           d="m 27544.4,25954 c -12.5,6.7 -24.6,14.3 -36.8,21.5 l 24.7,41.4 35.2,-20.6 -23.1,-42.3"
           style="display:inline;fill:#231f20;fill-opacity:1;fill-rule:nonzero;stroke:none"
           transform="matrix(0.13333333,0,0,-0.13333333,0,4000)" />
        <path
           d="m 27469.2,25999.3 -35.2,23.9 27.8,39.3 33.7,-22.9 -26.3,-40.3"
           style="display:inline;fill:#231f20;fill-opacity:1;fill-rule:nonzero;stroke:none"
           transform="matrix(0.13333333,0,0,-0.13333333,0,4000)" />
        <path
           d="m 27397.8,26050.3 c -11.2,8.7 -22.8,17 -33.5,26.4 l 30.9,36.9 c 10.4,-8.8 21.5,-16.7 32,-25.2 l -29.4,-38.1"
           style="display:inline;fill:#231f20;fill-opacity:1;fill-rule:nonzero;stroke:none"
           transform="matrix(0.13333333,0,0,-0.13333333,0,4000)" />
        <path
           d="m 27330.5,26106.7 c -5.4,4.7 -10.8,9.2 -15.9,14.1 l -15,15.3 33.8,34.2 14.5,-14.4 c 4.9,-4.7 10,-9.1 15,-13.7 l -32.4,-35.5"
           style="display:inline;fill:#231f20;fill-opacity:1;fill-rule:nonzero;stroke:none"
           transform="matrix(0.13333333,0,0,-0.13333333,0,4000)" />
        <path
           d="m 27267.8,26168.2 c -9.5,10.5 -18.8,21.4 -28,32.1 l 36.5,31.4 26.8,-30.7 -35.3,-32.8"
           style="display:inline;fill:#231f20;fill-opacity:1;fill-rule:nonzero;stroke:none"
           transform="matrix(0.13333333,0,0,-0.13333333,0,4000)" />
        <path
           d="m 27211,26235.1 -25.8,33.9 38.8,28.3 24.8,-32.4 -37.8,-29.8"
           style="display:inline;fill:#231f20;fill-opacity:1;fill-rule:nonzero;stroke:none"
           transform="matrix(0.13333333,0,0,-0.13333333,0,4000)" />
        <path
           d="m 27159.5,26306.2 c -7.8,11.8 -16.3,23.3 -23.2,35.6 l 40.9,25.3 c 6.9,-11.8 15.1,-22.7 22.3,-34.2 l -40,-26.7"
           style="display:inline;fill:#231f20;fill-opacity:1;fill-rule:nonzero;stroke:none"
           transform="matrix(0.13333333,0,0,-0.13333333,0,4000)" />
        <path
           d="m 27001.5,27134 -3.8,-20.7 6.2,-1 2.2,20.9 -4.6,0.8"
           style="display:inline;fill:#231f20;fill-opacity:1;fill-rule:nonzero;stroke:none"
           transform="matrix(0.13333333,0,0,-0.13333333,0,4000)" />
        <path
           d="m 26990.2,27072.1 c -2.3,-13.8 -3.4,-27.7 -5.1,-41.6 l 12.3,-1 c 0.8,13.8 0.8,27.7 2.1,41.5 l -9.3,1.1"
           style="display:inline;fill:#231f20;fill-opacity:1;fill-rule:nonzero;stroke:none"
           transform="matrix(0.13333333,0,0,-0.13333333,0,4000)" />
        <path
           d="m 26981,26988.7 -1.9,-42 h 17.9 l -0.7,41.4 -15.3,0.6"
           style="display:inline;fill:#231f20;fill-opacity:1;fill-rule:nonzero;stroke:none"
           transform="matrix(0.13333333,0,0,-0.13333333,0,4000)" />
        <path
           d="m 26978.7,26904.7 0.7,-42.2 23.1,1.8 -3.3,41.2 -20.5,-0.8"
           style="display:inline;fill:#231f20;fill-opacity:1;fill-rule:nonzero;stroke:none"
           transform="matrix(0.13333333,0,0,-0.13333333,0,4000)" />
        <path
           d="m 26982.7,26820.5 c 1.3,-14 1.9,-28.1 4.3,-42 l 27.6,4.2 c -3.1,13.5 -4.5,27.1 -6.5,40.7 l -25.4,-2.9"
           style="display:inline;fill:#231f20;fill-opacity:1;fill-rule:nonzero;stroke:none"
           transform="matrix(0.13333333,0,0,-0.13333333,0,4000)" />
        <path
           d="m 26992.9,26736.7 c 1.7,-14 5.1,-27.7 7.9,-41.5 l 31.5,7.2 c -3.4,13.3 -7.4,26.5 -9.6,40 l -29.8,-5.7"
           style="display:inline;fill:#231f20;fill-opacity:1;fill-rule:nonzero;stroke:none"
           transform="matrix(0.13333333,0,0,-0.13333333,0,4000)" />
        <path
           d="m 27009.6,26653.8 11.1,-40.8 34.6,10.6 -12.7,39 -33,-8.8"
           style="display:inline;fill:#231f20;fill-opacity:1;fill-rule:nonzero;stroke:none"
           transform="matrix(0.13333333,0,0,-0.13333333,0,4000)" />
        <path
           d="m 27032.8,26572.4 13.3,-40.3 38,14.7 -15.2,38.1 -36.1,-12.5"
           style="display:inline;fill:#231f20;fill-opacity:1;fill-rule:nonzero;stroke:none"
           transform="matrix(0.13333333,0,0,-0.13333333,0,4000)" />
        <path
           d="m 27061,26492.3 c 5.3,-13.1 9.9,-26.6 15.9,-39.4 l 42,19.9 c -6.2,12.1 -11.8,24.5 -17.8,36.8 l -40.1,-17.3"
           style="display:inline;fill:#231f20;fill-opacity:1;fill-rule:nonzero;stroke:none"
           transform="matrix(0.13333333,0,0,-0.13333333,0,4000)" />
        <path
           d="m 27095.3,26414.5 9.6,-19.1 10.8,-18.3 41.8,23.7 -10.1,17.7 -9.3,18.2 -42.8,-22.2"
           style="display:inline;fill:#231f20;fill-opacity:1;fill-rule:nonzero;stroke:none"
           transform="matrix(0.13333333,0,0,-0.13333333,0,4000)" />
        <path
           d="m 28492.8,23597.8 44.6,1115.6 c 0,0 -41.9,-65.4 -86.3,-0.2 l 41.7,-1115.4"
           style="display:inline;fill:#3f3b3c;fill-opacity:1;fill-rule:nonzero;stroke:none"
           transform="matrix(0.13333333,0,0,-0.13333333,0,4000)" />
        <path
           d="m 27782.2,26446.9 -14.1,6.6 2.8,5.6 13.3,-8.1 -2,-4.1"
           style="display:inline;fill:#231f20;fill-opacity:1;fill-rule:nonzero;stroke:none"
           transform="matrix(0.13333333,0,0,-0.13333333,0,4000)" />
        <path
           d="m 27740,26466.9 c -9.2,4.7 -17.8,10.6 -26.7,15.8 l 6.9,10.3 c 8.2,-6 16.1,-12.6 24.7,-18 l -4.9,-8.1"
           style="display:inline;fill:#231f20;fill-opacity:1;fill-rule:nonzero;stroke:none"
           transform="matrix(0.13333333,0,0,-0.13333333,0,4000)" />
        <path
           d="m 27687.1,26499.7 -25,19 11.9,13.5 22.4,-20.4 -9.3,-12.1"
           style="display:inline;fill:#231f20;fill-opacity:1;fill-rule:nonzero;stroke:none"
           transform="matrix(0.13333333,0,0,-0.13333333,0,4000)" />
        <path
           d="m 27638.4,26539.1 c -7.6,7.2 -15.5,14.1 -23,21.5 l 17.2,15.5 c 6.6,-7.5 13.5,-14.8 20.3,-22.3 l -14.5,-14.7"
           style="display:inline;fill:#231f20;fill-opacity:1;fill-rule:nonzero;stroke:none"
           transform="matrix(0.13333333,0,0,-0.13333333,0,4000)" />
        <path
           d="m 27594.4,26583.9 c -7.2,7.7 -14.1,15.6 -20.2,24.2 l 22.6,16.4 c 5.1,-8.6 11.2,-16.6 17.4,-24.5 l -19.8,-16.1"
           style="display:inline;fill:#231f20;fill-opacity:1;fill-rule:nonzero;stroke:none"
           transform="matrix(0.13333333,0,0,-0.13333333,0,4000)" />
        <path
           d="m 27555.2,26633.3 c -6.3,8.4 -11.4,17.6 -17.2,26.4 l 27.9,16.3 c 4.9,-8.7 9.1,-17.8 14.6,-26.2 l -25.3,-16.5"
           style="display:inline;fill:#231f20;fill-opacity:1;fill-rule:nonzero;stroke:none"
           transform="matrix(0.13333333,0,0,-0.13333333,0,4000)" />
        <path
           d="m 27521.7,26686.8 -14.6,28 32.8,15.2 12.1,-27.4 -30.3,-15.8"
           style="display:inline;fill:#231f20;fill-opacity:1;fill-rule:nonzero;stroke:none"
           transform="matrix(0.13333333,0,0,-0.13333333,0,4000)" />
        <path
           d="m 27493.6,26743.4 c -4.3,9.6 -8.6,19.3 -12.8,29 l 38.4,13.7 c 3.2,-9.4 6.5,-18.9 9.7,-28.3 l -35.3,-14.4"
           style="display:inline;fill:#231f20;fill-opacity:1;fill-rule:nonzero;stroke:none"
           transform="matrix(0.13333333,0,0,-0.13333333,0,4000)" />
        <path
           d="m 27469.7,26802.2 c -3.3,10 -7.8,19.7 -10.1,30.1 l 44.9,11.7 c 1.7,-9.9 4.7,-19.3 7,-29 l -41.8,-12.8"
           style="display:inline;fill:#231f20;fill-opacity:1;fill-rule:nonzero;stroke:none"
           transform="matrix(0.13333333,0,0,-0.13333333,0,4000)" />
        <path
           d="m 27451.5,26863 c -2.9,10.3 -4.4,20.8 -5.9,31.3 l 47.4,8.1 c 1.7,-9.8 3.1,-19.6 5.5,-29.3 l -47,-10.1"
           style="display:inline;fill:#231f20;fill-opacity:1;fill-rule:nonzero;stroke:none"
           transform="matrix(0.13333333,0,0,-0.13333333,0,4000)" />
        <path
           d="m 27440.2,26927.5 c -1.1,10.6 -2,21.2 -2.8,31.7 l 47.9,3.9 c 1.1,-9.8 2,-19.7 2.7,-29.6 l -47.8,-6"
           style="display:inline;fill:#231f20;fill-opacity:1;fill-rule:nonzero;stroke:none"
           transform="matrix(0.13333333,0,0,-0.13333333,0,4000)" />
        <path
           d="m 27435.3,26992.9 c -0.4,10.5 -0.5,21.2 -0.5,31.8 l 48.1,-0.4 c 0.3,-9.9 0.5,-19.8 0.5,-29.7 l -48.1,-1.7"
           style="display:inline;fill:#231f20;fill-opacity:1;fill-rule:nonzero;stroke:none"
           transform="matrix(0.13333333,0,0,-0.13333333,0,4000)" />
        <path
           d="m 27436,27058.4 c 0.6,10.6 0.6,21.2 2.2,31.7 l 47.8,-4.7 c -1.2,-9.8 -1,-19.8 -1.9,-29.6 l -48.1,2.6"
           style="display:inline;fill:#231f20;fill-opacity:1;fill-rule:nonzero;stroke:none"
           transform="matrix(0.13333333,0,0,-0.13333333,0,4000)" />
        <path
           d="m 27442.4,27123.7 c 1,10.6 3.2,20.9 5.4,31.2 l 47.3,-9 c -1.9,-9.7 -3.9,-19.5 -5,-29.3 l -47.7,7.1"
           style="display:inline;fill:#231f20;fill-opacity:1;fill-rule:nonzero;stroke:none"
           transform="matrix(0.13333333,0,0,-0.13333333,0,4000)" />
        <path
           d="m 27454.4,27187.9 c 2.5,10.2 5.3,20.4 8.1,30.6 l 46.4,-12.6 c -2.4,-9.7 -4.9,-19.3 -7.6,-28.9 l -46.9,10.9"
           style="display:inline;fill:#231f20;fill-opacity:1;fill-rule:nonzero;stroke:none"
           transform="matrix(0.13333333,0,0,-0.13333333,0,4000)" />
        <path
           d="m 27471.9,27250.7 c 3.1,10.1 6.4,20.1 9.8,30.1 l 45.4,-16.1 c -3,-9.5 -6,-19 -9.3,-28.4 l -45.9,14.4"
           style="display:inline;fill:#231f20;fill-opacity:1;fill-rule:nonzero;stroke:none"
           transform="matrix(0.13333333,0,0,-0.13333333,0,4000)" />
        <path
           d="m 27493.7,27312.1 c 3.8,9.8 7.2,19.8 12,29.2 l 44.1,-19.2 c -4.3,-9 -7.4,-18.6 -11.3,-27.7 l -44.8,17.7"
           style="display:inline;fill:#231f20;fill-opacity:1;fill-rule:nonzero;stroke:none"
           transform="matrix(0.13333333,0,0,-0.13333333,0,4000)" />
        <path
           d="m 27896.5,27797.2 -12.4,-9.3 3.9,-4.8 11.4,10.5 -2.9,3.6"
           style="display:inline;fill:#231f20;fill-opacity:1;fill-rule:nonzero;stroke:none"
           transform="matrix(0.13333333,0,0,-0.13333333,0,4000)" />
        <path
           d="m 27859.4,27769.3 c -8.2,-6.2 -16.1,-12.9 -24.2,-19.3 l 8.3,-9.2 c 7.3,7.1 14.5,14.4 22,21.4 l -6.1,7.1"
           style="display:inline;fill:#231f20;fill-opacity:1;fill-rule:nonzero;stroke:none"
           transform="matrix(0.13333333,0,0,-0.13333333,0,4000)" />
        <path
           d="m 27811.3,27730.3 -23.3,-20.4 12.5,-12.8 21.2,22 -10.4,11.2"
           style="display:inline;fill:#231f20;fill-opacity:1;fill-rule:nonzero;stroke:none"
           transform="matrix(0.13333333,0,0,-0.13333333,0,4000)" />
        <path
           d="m 27765.1,27689.1 -22.7,-21.2 16.8,-16 20.5,22.7 -14.6,14.5"
           style="display:inline;fill:#231f20;fill-opacity:1;fill-rule:nonzero;stroke:none"
           transform="matrix(0.13333333,0,0,-0.13333333,0,4000)" />
        <path
           d="m 27720.6,27645.8 c -7.2,-7.5 -14.8,-14.6 -21.6,-22.4 l 21,-18.3 c 6.1,8.2 13,15.7 19.5,23.5 l -18.9,17.2"
           style="display:inline;fill:#231f20;fill-opacity:1;fill-rule:nonzero;stroke:none"
           transform="matrix(0.13333333,0,0,-0.13333333,0,4000)" />
        <path
           d="m 27678,27600.4 c -7.1,-7.6 -13.7,-15.6 -20.4,-23.6 l 25.4,-20 c 6,8.2 11.9,16.4 18.3,24.3 l -23.3,19.3"
           style="display:inline;fill:#231f20;fill-opacity:1;fill-rule:nonzero;stroke:none"
           transform="matrix(0.13333333,0,0,-0.13333333,0,4000)" />
        <path
           d="m 27637.7,27552.7 -18.9,-24.8 29.5,-20.9 16.8,25.2 -27.4,20.5"
           style="display:inline;fill:#231f20;fill-opacity:1;fill-rule:nonzero;stroke:none"
           transform="matrix(0.13333333,0,0,-0.13333333,0,4000)" />
        <path
           d="m 27600.1,27502.8 -18.1,-25.6 34.5,-21.7 c 5.1,8.7 10.2,17.4 15.3,26.1 l -31.7,21.2"
           style="display:inline;fill:#231f20;fill-opacity:1;fill-rule:nonzero;stroke:none"
           transform="matrix(0.13333333,0,0,-0.13333333,0,4000)" />
        <path
           d="m 27564.5,27451.1 c -5.7,-8.8 -11.6,-17.5 -17,-26.4 l 40.7,-22.5 c 4.6,8.9 9.3,17.8 13.9,26.7 l -37.6,22.2"
           style="display:inline;fill:#231f20;fill-opacity:1;fill-rule:nonzero;stroke:none"
           transform="matrix(0.13333333,0,0,-0.13333333,0,4000)" />
        <path
           d="m 27532.2,27397.1 c -5.1,-9.2 -9.9,-18.6 -14,-28.3 l 43.5,-20.5 c 4.1,9.1 8.8,17.9 13.3,26.9 l -42.8,21.9"
           style="display:inline;fill:#231f20;fill-opacity:1;fill-rule:nonzero;stroke:none"
           transform="matrix(0.13333333,0,0,-0.13333333,0,4000)" />
        <path
           d="m 27677.6,28014 c 0,0 7.1,4 20.8,11.6 13.8,7.5 34.1,18.6 61.1,31.9 27,13.2 60.7,28.8 101.9,43.3 41.2,14.5 90.4,27.7 147.5,31.7 57.2,3.9 123.1,-5.4 185.9,-36 31.4,-15.3 62.1,-36.1 88.8,-63.7 26.3,-27.7 48.1,-62.9 59.4,-102.7 11.6,-39.5 12.7,-85 -5.1,-127.1 -17.7,-42.2 -57.4,-76.7 -106.1,-81.9 -49.2,-5.6 -98.6,28.7 -107.2,77.2 -9.1,49.8 40.6,95.5 84.3,82.8 0,0 -2.5,0.1 -7.5,0.3 -4.8,-0.3 -12.1,-0.9 -20.5,-4.6 -8.4,-3.6 -17.8,-10.3 -25.7,-20.4 -7.9,-10 -14,-24.1 -13.9,-39.2 0.5,-15.1 7.9,-31.5 21.4,-43.7 13.2,-12.3 32.6,-20.5 51.9,-19.9 19.9,0.6 40.5,9.9 56.7,25.8 16.4,15.8 27,37.4 30.6,62.3 3.5,24.7 0.7,52 -9.1,77.9 -9.2,26.1 -24.5,50.7 -44.7,72.2 -40.4,43.4 -100.1,73.4 -163.9,86.7 -63.6,13.6 -134,7.3 -202.4,-6.7 -68.7,-14.4 -136.9,-37.2 -204.2,-57.8"
           style="display:inline;fill:#3f3b3c;fill-opacity:1;fill-rule:nonzero;stroke:none"
           transform="matrix(0.13333333,0,0,-0.13333333,0,4000)" />
        <path
           d="m 27889.6,28595.5 c 53.3,-162.3 28,-291.1 4,-361 68.2,26.2 193.8,54.4 355.3,1.7 -19.2,35.1 -58,82.7 -133.4,106.3 l -63,19.7 62,22.6 c 2.8,1.1 69.8,29.1 85.1,161 -132.1,-15.3 -160.4,-82 -161.6,-85 l -23.4,-58 -18.8,59.4 c -23.5,75.4 -71.1,114.2 -106.2,133.3 z m -107.6,-477.6 48.2,81.8 c 1.2,2.1 101.7,179.6 0.6,426.3 l -15.9,38.9 41.2,-8.6 c 4.9,-1 111.4,-24.6 166.6,-140.6 29.4,31.1 88.2,70.4 200.1,76.9 l 25,1.4 -1.5,-25 c -6.4,-111.8 -45.9,-170.4 -77.1,-199.7 115.9,-55.3 139.4,-161.6 140.5,-166.6 l 8.6,-41.1 -38.9,15.9 c -246.3,100.8 -410.9,-3.3 -417.8,-7.7 l -79.6,-51.9"
           style="display:inline;fill:#3f3b3c;fill-opacity:1;fill-rule:nonzero;stroke:none"
           transform="matrix(0.13333333,0,0,-0.13333333,0,4000)" />
      </g>
    </g>
  </g>
</svg>
