<?xml version="1.0" encoding="UTF-8" standalone="no"?>

<svg
   version="1.1"
   viewBox="0 0 2653.3066 383.53174"
   xmlns="http://www.w3.org/2000/svg"
>
  <g transform="translate(-3145.5733,-2686.5201)">
    <path
       d="m 33540.1,25407.2 c 50.6,-156.7 48.8,-332.1 46.6,-495.2 -2.6,-137.5 -14.2,-274.1 -37,-409.2 -110.2,-37.4 -241.1,-5.4 -338.6,58.7 -130.7,86.8 -205.1,236.3 -256.5,378.9 -60.3,169.4 -109.7,355.3 -93.7,536.1 4.3,44.4 14.9,87.6 29.9,129.3 14.4,40.1 59.2,70.5 92.9,93.6 m -1093.2,-1280.1 c 279,-179 397.8,-543.2 296.5,-855.7 -51.7,-158 -214.7,-264.5 -369.2,-303.8 -152.7,-39.4 -314.5,0.6 -445.2,82.5 -134.2,84.6 -223.9,223.7 -270.2,372.5 -51.2,166.3 -16.7,339.6 -38,509 -6.1,51.3 -21.5,98.9 -43.8,142.1 243.3,207.4 600.4,226.6 869.9,53.4 z m -1392.4,-401.5 c 15.3,-90.5 15.8,-183.5 8.4,-274.9 -6.3,-83.2 -17.7,-199.9 -70.4,-266.6 -106.1,-136.4 -302.4,-181 -443.9,-75.4 -138.3,102 -149.2,294.3 -108.4,446.9 47.4,179.1 171.4,349.3 312.5,466.7 45.3,38 95.5,70.1 148.4,93.7 77.5,-115.7 129.6,-251.2 153.4,-390.4 z m 2423.5,1670.4 c -88.8,-133.7 -139,-272.8 -133.7,-434.8 6.4,-164.3 58.3,-333.8 117.3,-486.1 56.2,-145 145.3,-278 284.9,-354.8 107.6,-59.5 238,-61.4 342.6,-3.6 -29.4,-145.7 -70.6,-289 -125.3,-427.3 -245.4,-620.8 -876.2,-1069.7 -1551.4,-1035.6 -328.4,17.2 -655.6,160.8 -862,421.5 -196.8,249.1 -259.6,647.5 -60,907.6 21.2,-34.3 38.7,-72.2 49.6,-112.9 45.3,-165.9 1,-344.1 35.5,-513.1 31.1,-153.6 116.2,-295 237.5,-393.9 247.7,-202 591.3,-153.6 801.8,72.2 207.1,222.8 288.9,550.9 191.9,839.4 -103.1,305.2 -404.4,503 -722.7,492 -215.3,-8.3 -391,-112.3 -525,-261.6 -46.8,72 -117,128.4 -205.1,161 -125.4,46.2 -263.1,24.7 -382.7,-29.5 -100.8,147.1 -243.6,263.8 -417.8,325.4 -295,104.9 -626.8,17.2 -845.6,-202.1 -14.1,-14.1 -28.1,-29.7 -41.5,-45.3 -20.5,-23 -36.2,-53.5 -49.9,-81.1 -1.8,-3.6 -21.8,-46.9 -4,-26 216.2,248.9 560.1,336.8 871.6,234.1 153.2,-49.7 279.6,-146.2 375.6,-268.3 -117,-80.8 -207.4,-197 -284.2,-315.1 -84.1,-129.3 -161.5,-268.3 -205.3,-416.2 -43.9,-148.1 -27.1,-316 82.5,-430.4 114.5,-118.9 293.5,-97.4 415.3,-5.1 110.2,82.3 185.1,231 227.4,359.6 50.2,153.2 52.2,322.5 28.6,480.2 -16.4,109.1 -52.1,214.6 -103.8,310.1 68.9,14.8 140,16.9 211.5,3.5 102.8,-18.5 188.9,-77.2 246.6,-158.3 -33.7,-49 -63.3,-100.1 -89.6,-153.1 -145.1,-294.5 -104.6,-633.2 92.4,-893.6 201.8,-265.1 537.1,-399.9 862.3,-421.3 327.4,-21.4 651.6,81.8 923.8,261 256.3,169.4 453.8,408.8 606.2,673.5 124.1,213.9 213,445.1 268.7,685.1 6.9,5.2 13.2,11.4 19.5,17.2 101.8,101.7 161.6,253.4 184.1,393.3 13.2,87 15.5,175.2 26.9,262.2 5.6,43.2 14.7,85.5 26.8,127.3 14.5,45.3 50.9,72.9 89.7,97.2 156.7,99 324.9,-27.6 361.1,-185.1 49.1,-214 -135.3,-357.3 -267.7,-491.9 -176,-178.6 -440.4,-543.5 -197.5,-773.2 5.1,-5.3 11.2,-9.6 17,-14 33.4,36.3 68.3,69.9 105.5,101.8 -32.6,15.7 -63,39.4 -89.3,72 -54.2,67 -64.3,158.4 -54.2,241.6 13.4,106.3 83.5,180.7 154.7,254.4 111.4,115 228.4,222.2 308.5,363.4 74.9,130.7 130.9,272.7 75.9,422.8 -56.7,153.9 -232.7,200 -365.9,116 -111.4,-70.4 -182.9,-228.2 -216.3,-349.1 -22,-80.6 -26.6,-165.2 -33.1,-247.8 -7.6,-89.9 -8.2,-219.3 -75.8,-286 -16.4,-15.8 -33.7,-29.9 -51.9,-40.2 5.6,28.1 10.7,57 15.7,85.5 25.9,155.3 37,312.7 37.8,470.5 0.7,154.6 -5.6,314.5 -53.5,463"
       style="fill:#100f0d;fill-opacity:1;fill-rule:nonzero;stroke:none"
       transform="matrix(0.13333333,0,0,-0.13333333,0,6113.1067)" />
    <path
       d="m 29417.6,24454.3 c 0,-104 -84.3,-188.1 -188.4,-188.1 -104.1,0 -188.9,84.1 -188.9,188.1 0,103.9 84.8,188.6 188.9,188.6 104.1,0 188.4,-84.7 188.4,-188.6"
       style="fill:#100f0d;fill-opacity:1;fill-rule:nonzero;stroke:none"
       transform="matrix(0.13333333,0,0,-0.13333333,0,6113.1067)" />
    <path
       d="m 34096.2,25699.4 c 33.9,-23.1 78.5,-53.5 92.9,-93.6 14.7,-41.7 25.8,-84.9 29.6,-129.3 16.3,-180.8 -32.6,-366.7 -93.9,-536.1 -51.2,-142.6 -125.6,-292.1 -256.3,-378.9 -96.5,-64.1 -227.4,-96.1 -338.3,-58.7 -22.1,135.1 -34.2,271.7 -36.7,409.2 -2.6,163.1 -4.1,338.5 46.6,495.2 M 36059,24365.9 c -22.3,-43.2 -36.9,-90.8 -44.1,-142.1 -20.5,-169.4 14.2,-342.7 -37.7,-509 -46.1,-148.8 -136,-287.9 -269.7,-372.5 -130.9,-81.9 -292.7,-121.9 -445.2,-82.5 -154.7,39.3 -317.3,145.8 -369.4,303.8 -101.1,312.5 16.9,676.7 296.8,855.7 268.9,173.2 626.2,154 869.3,-53.4 z m 675.9,42.3 c 53.4,-23.6 103.1,-55.7 148.4,-93.7 141.6,-117.4 265.4,-287.6 313,-466.7 40.3,-152.6 29.9,-344.9 -108.4,-446.9 -142,-105.6 -338.1,-61 -444.4,75.4 -52.2,66.7 -64.1,183.4 -70.2,266.6 -7.3,91.4 -6.5,184.4 9.2,274.9 23,139.2 75.2,274.7 152.4,390.4 z m -3258.4,1138 c -48.1,-148.5 -54.2,-308.4 -53.7,-463 0.8,-157.8 12.2,-315.2 38,-470.5 4.8,-28.5 9.9,-57.4 15.9,-85.5 -18.5,10.3 -35.9,24.4 -52.4,40.2 -67.6,66.7 -67.8,196.1 -74.9,286 -7.1,82.6 -11.7,167.2 -33.7,247.8 -33.9,120.9 -104.9,278.7 -216.5,349.1 -133,84 -309.2,37.9 -365.7,-116 -55,-150.1 1.3,-292.1 75.2,-422.8 80.8,-141.2 197.3,-248.4 309.2,-363.4 71.4,-73.7 141.1,-148.1 154.5,-254.4 10.1,-83.2 0,-174.6 -53.7,-241.6 -26.9,-32.6 -57,-56.3 -89.9,-72 37,-31.9 72.2,-65.5 106.1,-101.8 5.6,4.4 11.1,8.7 16.7,14 242.6,229.7 -22,594.6 -197.3,773.2 -132.7,134.6 -317.5,277.9 -268.1,491.9 36.2,157.5 204.6,284.1 361.6,185.1 38.5,-24.3 74.4,-51.9 88.4,-97.2 13.4,-41.8 22.2,-84.1 28.1,-127.3 11.6,-87 12.9,-175.2 26.8,-262.2 22.3,-139.9 82.1,-291.6 183.9,-393.3 6.3,-5.8 12.6,-12 19.2,-17.2 55.7,-240 144.6,-471.2 268.7,-685.1 152.4,-264.7 350.2,-504.1 606.5,-673.5 272.2,-179.2 596.4,-282.4 924.1,-261 324.9,21.4 659.9,156.2 861.5,421.3 196.8,260.4 237.8,599.1 93,893.6 -26.1,53 -56.5,104.1 -90.2,153.1 58,81.1 144.3,139.8 246.9,158.3 71.4,13.4 142.8,11.3 211.2,-3.5 -51.2,-95.5 -87.1,-201 -103.3,-310.1 -23.8,-157.7 -21.5,-327 28.3,-480.2 42.3,-128.6 117.3,-277.3 227.4,-359.6 122.6,-92.3 300.9,-113.8 415.4,5.1 109.3,114.4 126.3,282.3 82.5,430.4 -44.1,147.9 -121.1,286.9 -205.1,416.2 -77.2,118.1 -167.2,234.3 -284.9,315.1 96,122.1 222.6,218.6 376.3,268.3 311.5,102.7 654.9,14.8 871.1,-234.1 18,-20.9 -2.2,22.4 -3.7,26 -14.2,27.6 -29.4,58.1 -49.9,81.1 -13.2,15.6 -27.1,31.2 -41.3,45.3 -219.6,219.3 -550.8,307 -845.8,202.1 -174,-61.6 -316.8,-178.3 -418.1,-325.4 -119.6,54.2 -257.1,75.7 -382.7,29.5 -87.6,-32.6 -158.3,-89 -205.4,-161 -133.7,149.3 -308.9,253.3 -524.7,261.6 -318,11 -619.6,-186.8 -722.5,-492 -97.2,-288.5 -14.6,-616.6 191.8,-839.4 211.1,-225.8 553.8,-274.2 801.4,-72.2 121.8,98.9 206.4,240.3 238.6,393.9 34.2,169 -10.4,347.2 34.9,513.1 11.4,40.7 28.2,78.6 49.9,112.9 199.8,-260.1 136.8,-658.5 -60.2,-907.6 -206.7,-260.7 -533.9,-404.3 -862.1,-421.5 -675.1,-34.1 -1305.9,414.8 -1551,1035.6 -54.7,138.3 -95.8,281.6 -125.4,427.3 104.6,-57.8 234.8,-55.9 342.9,3.6 138.8,76.8 227.9,209.8 284.4,354.8 59.5,152.3 110.9,321.8 116.7,486.1 6.1,162 -44.6,301.1 -133,434.8"
       style="fill:#100f0d;fill-opacity:1;fill-rule:nonzero;stroke:none"
       transform="matrix(0.13333333,0,0,-0.13333333,0,6113.1067)" />
    <path
       d="m 37662.5,24454.3 c 0,-104 83.9,-188.1 187.9,-188.1 104.9,0 188.9,84.1 188.9,188.1 0,103.9 -84,188.6 -188.9,188.6 -104,0 -187.9,-84.7 -187.9,-188.6"
       style="fill:#100f0d;fill-opacity:1;fill-rule:nonzero;stroke:none"
       transform="matrix(0.13333333,0,0,-0.13333333,0,6113.1067)" />
    <path
       d="M 24264.2,23755.5 H 30095 v -90.6 h -5830.8 v 90.6"
       style="fill:#100f0d;fill-opacity:1;fill-rule:nonzero;stroke:none"
       transform="matrix(0.13333333,0,0,-0.13333333,0,6113.1067)" />
    <path
       d="m 24311,23562.2 v 295.9 l -719.2,-135.3 z"
       style="fill:#100f0d;fill-opacity:1;fill-rule:nonzero;stroke:none"
       transform="matrix(0.13333333,0,0,-0.13333333,0,6113.1067)" />
    <path
       d="m 30015,23717.6 c 0,40.3 31.6,72.2 71.4,72.2 39.7,0 72.4,-31.9 72.4,-72.2 0,-39.2 -32.7,-71.3 -72.4,-71.3 -39.8,0 -71.4,32.1 -71.4,71.3"
       style="fill:#100f0d;fill-opacity:1;fill-rule:nonzero;stroke:none"
       transform="matrix(0.13333333,0,0,-0.13333333,0,6113.1067)" />
    <path
       d="m 42818.7,23664.9 h -5830.5 v 90.6 h 5830.5 v -90.6"
       style="fill:#100f0d;fill-opacity:1;fill-rule:nonzero;stroke:none"
       transform="matrix(0.13333333,0,0,-0.13333333,0,6113.1067)" />
    <path
       d="m 42771.6,23858.1 v -295.9 l 720,135.4 z"
       style="fill:#100f0d;fill-opacity:1;fill-rule:nonzero;stroke:none"
       transform="matrix(0.13333333,0,0,-0.13333333,0,6113.1067)" />
    <path
       d="m 37068.4,23702.8 c 0,-39.5 -31.9,-72.2 -71.9,-72.2 -39.7,0 -71.4,32.7 -71.4,72.2 0,39.4 31.7,72 71.4,72 40,0 71.9,-32.6 71.9,-72"
       style="fill:#100f0d;fill-opacity:1;fill-rule:nonzero;stroke:none"
       transform="matrix(0.13333333,0,0,-0.13333333,0,6113.1067)" />
  </g>
</svg>
