<?xml version="1.0" encoding="UTF-8" standalone="no"?>

<svg
   version="1.1"
   viewBox="0 0 2599.1401 243.93333"
   xmlns="http://www.w3.org/2000/svg"
>
  <g transform="translate(-3169.6361,-5122.2001)">
    <path
       d="m 35195.5,6777.7 c -2.8,-2.1 -5.8,-3.9 -9.1,-5.4 -40.3,52.5 -65.9,113.4 -66.6,176.6 -1.6,77.5 50.9,158.3 145,171.3 10.9,0.7 22.4,0.7 33,0.7 5.3,-0.7 10.9,-0.7 15.7,-2.3 18.2,-11.4 32.6,-27.4 43.5,-45 23.6,-37.2 24.4,-81.1 11.2,-120.9 -24.3,-74.6 -101.6,-132.4 -172.7,-175 z m -851.2,152.2 c -8.3,-25 -19.7,-50.4 -33.4,-73.8 -17,14.3 -32.6,29.6 -47.8,44.8 -62.4,63.2 -123.4,146.1 -98.8,232.1 10.4,37.1 43,69.3 86.6,77.4 10.4,1.7 22,1.7 31.9,0.9 1.5,0 2.3,-0.9 3.8,-0.9 18.2,-11.9 32.7,-28.8 44.1,-45.5 48.8,-69.2 38,-160.4 13.6,-235 z m 1410.3,-202.3 c -3.5,1.5 -34.7,15.9 -38.7,11.2 -61.6,-64.5 -151.2,-102 -247.7,-104.9 -42.8,-1.5 -92.2,2.9 -131.9,18.2 -37.8,14.6 -72.2,41.2 -100.8,66.9 -2.5,2.5 -4.8,4.7 -7.1,6.9 44,22.2 84.6,47.9 121.6,78.4 68.1,54.6 120.2,129.3 94.7,212.2 -11.7,37.4 -40.3,67.9 -78.5,88.4 -45.6,24.2 -102.1,46.2 -157,45.6 -94,-0.9 -153.5,-73.8 -163.4,-149.3 -11.6,-81.9 32.7,-165.7 89.7,-229.8 6,-6 11.6,-11.3 17.7,-17.2 -143.1,-72.3 -315.1,-96 -478.6,-70.8 -77.5,12.3 -146.9,34.3 -212.8,69.1 -30.6,16.2 -60.5,35.1 -88.4,54.9 32,49.6 53,104.2 62.4,160.4 12.1,79.2 -4.6,168.1 -81.3,219.9 -20.8,13.7 -44.1,24.4 -67.9,33.5 -25.8,9.8 -52.7,18.3 -80.8,20.6 -42.5,3 -81.3,-18.4 -102.5,-49.5 -52.5,-74.5 3,-168.9 55.4,-230.6 39.5,-47.1 87.6,-89 140.1,-126.2 -20.5,-30.3 -45.1,-59.2 -72.5,-85.1 -120,-112.1 -298,-153.1 -469.5,-130.2 -86.6,11.3 -162.3,39.5 -231.4,86 -76.5,51 -137.5,118.6 -172.8,197.1 -34.6,78.3 -34.9,164.1 -6.3,244.2 26.9,75.9 82.1,142.3 148.9,196.2 24.1,19.9 3.1,82.8 -3.5,78.4 -2,-0.8 -3.1,-2.4 -5.3,-3.2 -0.8,-0.5 -2.1,-1.4 -3.3,-2.3 -7.1,-3.8 -154,-123 -192.2,-194.7 -39.8,-75.3 -50.9,-161.4 -29.4,-242.1 44.1,-169.3 213.7,-281.3 389.5,-345 166.1,-60.8 359.3,-74 523.7,1.4 78.5,36.4 143.3,91.4 188.6,156.6 73.2,-43.9 154.5,-78.3 237.3,-104.7 82.3,-26.1 168.9,-42.9 256.6,-44.5 120.2,-2.9 239.8,21.4 345.6,69.4 52.9,-37.3 115.2,-64.7 180.1,-85.1 92.6,-29 192.4,-33.4 284.4,0.7 48.1,17.4 90.4,46.4 123.3,81.4 2.3,2.1 -33.4,16.7 -36,17.6"
       style="fill:#100f0d;fill-opacity:1;fill-rule:nonzero;stroke:none"
       transform="matrix(0.13333333,0,0,-0.13333333,0,6113.1067)" />
    <path
       d="m 34281.3,7213.7 c -10.6,3.6 -6.9,3.6 0,0 v 0"
       style="fill:#100f0d;fill-opacity:1;fill-rule:nonzero;stroke:none"
       transform="matrix(0.13333333,0,0,-0.13333333,0,6113.1067)" />
    <path
       d="m 35716.6,6675 c -61.5,-5.3 -115.4,33.6 -122.3,86.9 -6.1,53.1 39,100.3 99.8,105.5 61.8,5.3 116.2,-33.5 122.3,-86.8 6.1,-53 -38.7,-100.3 -99.8,-105.6"
       style="fill:#100f0d;fill-opacity:1;fill-rule:nonzero;stroke:none"
       transform="matrix(0.13333333,0,0,-0.13333333,0,6113.1067)" />
    <path
       d="m 32667.9,6929.9 c -24.6,74.6 -34.7,165.8 13.4,235 11.9,16.7 26.4,33.6 44.6,45.5 1.3,0 2,0.9 3.3,0.9 10.4,0.8 21.3,0.8 31.6,-0.9 44.4,-8.1 76.8,-40.3 87.7,-77.4 24.3,-86 -37.3,-168.9 -99,-232.1 -15.5,-15.2 -31.7,-30.5 -48.4,-44.8 -13.7,23.4 -24.6,48.8 -33.2,73.8 z m -851.4,-152.2 c -70.4,42.6 -148.6,100.4 -172.7,175 -12.6,39.8 -11.9,83.7 11.4,120.9 10.4,17.6 25.3,33.6 43.8,45 5.1,1.6 10.1,1.6 15.7,2.3 10.6,0 21.8,0 32.9,-0.7 94.2,-13 146.7,-93.8 145.4,-171.3 -0.8,-63.2 -26.9,-124.1 -67.1,-176.6 -3.1,1.5 -5.8,3.3 -9.4,5.4 z m 1904.9,444.2 c -38.5,71.7 -99,133.3 -170.5,182 -14.9,9.8 -30.1,19.1 -45.3,27.9 -1,-0.6 -1.5,-2 -2.8,-2 -1.7,-0.8 -25.5,-19.1 -32.9,-23.8 -7.1,-5.3 25.3,-43.9 47.1,-62.3 66.9,-53.9 122.1,-120.3 149.2,-196.2 28.1,-80.1 28.1,-165.9 -6.9,-244.2 -34.6,-78.5 -96,-146.1 -171.9,-197.1 -69.1,-46.5 -145.4,-74.7 -231.7,-86 -171.5,-22.9 -349.8,18.1 -470,130.2 -27.6,25.9 -51.7,54.8 -71.9,85.1 52.4,37.2 100,79.1 140,126.2 52.4,61.7 107.9,156.1 55.5,230.6 -21.8,31.1 -60.6,52.5 -103.7,49.5 -27.5,-2.3 -54.1,-10.8 -79.7,-20.6 -23.6,-9.1 -47.6,-19.8 -67.9,-33.5 -76.7,-51.8 -93.4,-140.7 -81.3,-219.9 8.6,-56.2 30.2,-110.8 62.1,-160.4 -27.6,-19.8 -57.5,-38.7 -88.4,-54.9 -65.8,-34.8 -135,-56.8 -212.7,-69.1 -163.4,-25.2 -335.3,-1.5 -478.6,70.8 6,5.9 11.9,11.2 17.2,17.2 57.5,64.1 101.3,147.9 90.4,229.8 -10.2,75.5 -69.7,148.4 -163.9,149.3 -54.9,0.6 -110.9,-21.4 -156.7,-45.6 -37.7,-20.5 -67.1,-51 -78.5,-88.4 -25.6,-82.9 27.1,-157.6 94.2,-212.2 37.5,-30.5 78,-56.2 122.3,-78.4 -2.8,-2.2 -4.6,-4.4 -6.8,-6.9 -29.2,-25.7 -63.1,-52.3 -101.8,-66.9 -39.3,-15.3 -88.2,-19.7 -131.5,-18.2 -96.7,2.9 -186.1,40.4 -247.6,104.9 -4.1,4.7 -35.5,-9.7 -39.3,-11.2 -1.8,-0.9 -37.7,-15.5 -35.7,-17.6 33.2,-35 75.2,-64 123.6,-81.4 91.7,-34.1 191.9,-29.7 284.1,-0.7 64.6,20.4 127.2,47.8 180.3,85.1 105.9,-48 225.7,-72.3 345.7,-69.4 87.6,1.6 174,18.4 256.5,44.5 82.8,26.4 164.1,60.8 237.1,104.7 45.8,-65.2 110.6,-120.2 188.9,-156.6 164.1,-75.4 357.3,-62.2 523.9,-1.4 175.8,63.7 345.2,175.7 389.5,345 21.3,80.7 10.1,166.8 -29.6,242.1"
       style="fill:#100f0d;fill-opacity:1;fill-rule:nonzero;stroke:none"
       transform="matrix(0.13333333,0,0,-0.13333333,0,6113.1067)" />
    <path
       d="m 32731,7213.7 c 7,3.6 10.6,3.6 0,0 v 0"
       style="fill:#100f0d;fill-opacity:1;fill-rule:nonzero;stroke:none"
       transform="matrix(0.13333333,0,0,-0.13333333,0,6113.1067)" />
    <path
       d="m 31295.3,6675 c 61.6,-5.3 116.3,33.6 122.6,86.9 6.4,53.1 -38.7,100.3 -100,105.5 -60.8,5.3 -116.2,-33.5 -122.6,-86.8 -5.8,-53 39.3,-100.3 100,-105.6"
       style="fill:#100f0d;fill-opacity:1;fill-rule:nonzero;stroke:none"
       transform="matrix(0.13333333,0,0,-0.13333333,0,6113.1067)" />
    <path
       d="m 31842.9,6255.9 c 2.7,2.2 5.8,3.6 9.3,6 40.3,-52.4 66.1,-114.1 66.9,-176.7 1,-78.2 -50.9,-158 -145.6,-170.8 -10.9,-1.6 -22.3,-1.6 -33,-0.9 -5,0 -10.6,0.9 -15.7,1.6 -18.2,12.1 -32.9,27.8 -43.8,45.7 -22.8,36.5 -24,80.5 -10.9,120.9 24.4,74.6 102.1,132.2 172.8,174.2 z m 851.1,-152.3 c 8.3,26.1 19.8,50.1 33.4,73.8 16.7,-14.3 32.7,-28.8 47.9,-44.9 62,-63 123.8,-145.1 98.7,-231.9 -10.1,-37.4 -42.8,-69.4 -87.1,-77 -10.4,-2.2 -21.2,-1.6 -31.9,-0.7 -0.7,0 -1.8,0 -3,0 -18,12.8 -33.2,29 -44.8,46.3 -48.4,68.5 -37.5,160.6 -13.2,234.4 z m -1411.1,202.5 c 4.1,-1.6 35,-15.2 39.3,-11.6 62,65.5 150.9,102 247.4,105.8 43.8,1.5 92.2,-2.9 132.5,-18.3 38.2,-14.5 72.1,-41.9 101,-67.7 2.3,-1.4 4.5,-3.6 6.8,-6.1 -43.8,-22 -85.1,-48.7 -121.8,-78.2 -67.3,-55.6 -120.5,-130.2 -94.7,-213 11.9,-37.4 41,-67.7 78.3,-87.5 45.8,-25.2 102.5,-47.2 157,-46.3 94.2,1.3 154.2,74.3 163.8,148.8 10.9,82.2 -32.7,166.8 -90.2,229.9 -5.5,5.9 -11.3,12.1 -17.2,17.4 143.1,72.5 315.6,96.7 478.4,71.7 78.3,-12.4 146.6,-35.2 213,-70.1 31.1,-16 60.5,-34.3 88.4,-54.1 -31.7,-49.4 -53.5,-104 -62.1,-161.2 -12.6,-79.1 4.3,-167.4 81.3,-219 20.5,-14.5 43.8,-24.6 67.9,-33.5 25.8,-10.1 52.4,-18.3 80.3,-20.5 42.3,-3.3 81.2,18.1 102.8,48.6 52.6,74.5 -2.6,169.6 -55,231.3 -40.5,47 -88.1,89 -140,126.3 20,30.4 44,58.7 71.1,84.5 120.6,112.4 298.9,152.8 470.3,130 86.6,-10.8 163.1,-39 231.7,-85.3 76.5,-51.6 137.8,-119.4 172.2,-197.7 35,-77.7 35,-164.3 7.1,-243.3 -27.1,-77.2 -82.6,-143.3 -149.4,-197.2 -23.8,-19.8 -3,-82.3 3.6,-78.2 2,1.5 3,2 5.3,3.6 1.2,0.8 2.5,0.8 3.3,1.7 7,4.4 153.9,123.1 191.9,195.4 39.5,75.4 51.2,161.3 29.6,241.9 -44,169.8 -213.5,280.6 -389.5,344.7 -166.6,60.8 -359.8,73.8 -523.6,-1.5 -78.3,-36 -143.6,-91.3 -189,-156 -73.2,43.5 -153.9,77.5 -237,104 -82.8,27 -168.7,42.7 -256.5,45.1 -120.3,2.9 -240.1,-22.1 -345.7,-70.2 -52.9,37.6 -115.7,65.8 -180,85.5 -92.7,29.4 -192.5,33.5 -284.7,0 -47.8,-18.3 -90.1,-47.3 -123.3,-81.4 -2.5,-2.4 33.4,-17.6 35.4,-18.3"
       style="fill:#100f0d;fill-opacity:1;fill-rule:nonzero;stroke:none"
       transform="matrix(0.13333333,0,0,-0.13333333,0,6113.1067)" />
    <path
       d="m 32756.5,5820 c 11.2,-4 7.6,-4 0,0 v 0"
       style="fill:#100f0d;fill-opacity:1;fill-rule:nonzero;stroke:none"
       transform="matrix(0.13333333,0,0,-0.13333333,0,6113.1067)" />
    <path
       d="m 31321.7,6359.1 c 61,5.6 115.7,-33.3 122.3,-86.6 6.1,-53.3 -39,-100.5 -100,-105.7 -61.3,-5.3 -116,32.5 -122.4,85.8 -6.3,53.5 38.8,101.2 100.1,106.5"
       style="fill:#100f0d;fill-opacity:1;fill-rule:nonzero;stroke:none"
       transform="matrix(0.13333333,0,0,-0.13333333,0,6113.1067)" />
    <path
       d="m 34370.4,6103.6 c 24.3,-73.8 35,-165.9 -13.2,-234.4 -12.1,-17.3 -26.5,-33.5 -44.8,-46.3 -1.5,0 -2,0 -3,0 -10.6,-0.9 -21.8,-1.5 -31.9,0.7 -44.1,7.6 -76.8,39.6 -87.6,77 -24.3,86.8 37.5,168.9 99,231.9 15.4,16.1 31.1,30.6 47.8,44.9 14,-23.7 25.1,-47.7 33.7,-73.8 z m 851.2,152.3 c 70.6,-42 148.4,-99.6 172.7,-174.2 12.9,-40.4 12.1,-84.4 -11.4,-120.9 -10.7,-17.9 -25.1,-33.6 -43.3,-45.7 -5.4,-0.7 -10.9,-1.6 -16,-1.6 -10.6,-0.7 -22.3,-0.7 -32.9,0.9 -94.2,12.8 -146.6,92.6 -145.1,170.8 0.5,62.6 26.6,124.3 66.8,176.7 3.1,-2.4 6.1,-3.8 9.2,-6 z m -1904.1,-443.6 c 37.7,-72.3 98.2,-132.9 170.1,-182.6 14.7,-10 29.9,-18.1 45.4,-27.4 1,0 1.5,1.5 3,2.4 1.3,0 25.6,18.1 32.4,23.4 7.1,5.2 -25.3,43.6 -47.1,61.7 -66.6,53.9 -122,120 -149.1,197.2 -28.2,79 -27.9,165.6 6.8,243.3 34.7,78.3 96.2,146.1 172.2,197.7 69.1,46.3 145.1,74.5 231.7,85.3 171,22.8 349.7,-17.6 469.5,-130 27.9,-25.8 51.9,-54.1 72.2,-84.5 -52.4,-37.3 -99.8,-79.3 -140.1,-126.3 -52.1,-61.7 -107.8,-156.8 -55.4,-231.3 22,-30.5 60.8,-51.9 103.3,-48.6 28.4,2.2 54.2,10.4 80,20.5 23.6,8.9 47.1,19 67.6,33.5 77,51.6 93.8,139.9 81.8,219 -9.1,57.2 -30.6,111.8 -62.8,161.2 28.4,19.8 58,38.1 88.4,54.1 66.1,34.9 135.5,57.7 213,70.1 163.6,25 335.5,0.8 478.6,-71.7 -5.3,-5.3 -11.6,-11.5 -16.7,-17.4 -58,-63.1 -101,-147.7 -90.7,-229.9 10.2,-74.5 69.9,-147.5 164.4,-148.8 54.2,-0.9 110.9,21.1 156.7,46.3 37.3,19.8 66.2,50.1 78.3,87.5 25.8,82.8 -27.4,157.4 -95,213 -37.2,29.5 -77.5,56.2 -121.8,78.2 2.3,2.5 4.6,4.7 6.9,6.1 29.1,25.8 63,53.2 101.3,67.7 40.2,15.4 88.6,19.8 131.4,18.3 96.7,-3.8 186.4,-40.3 248.4,-105.8 3.6,-3.6 35.5,10 39.3,11.6 1.5,0.7 37.5,15.9 35.7,18.3 -33.5,34.1 -76.2,63.1 -124.1,81.4 -91.9,33.5 -191.7,29.4 -284.4,0 -63.6,-19.7 -127.1,-47.9 -179.5,-85.5 -105.9,48.1 -225.9,73.1 -346.2,70.2 -87.4,-2.4 -174,-18.1 -256.3,-45.1 -83.1,-26.5 -163.8,-60.5 -236.8,-104 -46.3,64.7 -110.1,120 -189.2,156 -163.8,75.3 -356.7,62.3 -524.2,1.5 -175.4,-64.1 -344.9,-174.9 -389.2,-344.7 -20.7,-80.6 -10.1,-166.5 30.2,-241.9"
       style="fill:#100f0d;fill-opacity:1;fill-rule:nonzero;stroke:none"
       transform="matrix(0.13333333,0,0,-0.13333333,0,6113.1067)" />
    <path
       d="m 34307.9,5820 c -7.6,-4 -11.2,-4 0,0 v 0"
       style="fill:#100f0d;fill-opacity:1;fill-rule:nonzero;stroke:none"
       transform="matrix(0.13333333,0,0,-0.13333333,0,6113.1067)" />
    <path
       d="m 35742.7,6359.1 c -61,5.6 -115.5,-33.3 -122.5,-86.6 -6.1,-53.3 38.7,-100.5 100.5,-105.7 60.8,-5.3 115.5,32.5 121.5,85.8 6.9,53.5 -37.9,101.2 -99.5,106.5"
       style="fill:#100f0d;fill-opacity:1;fill-rule:nonzero;stroke:none"
       transform="matrix(0.13333333,0,0,-0.13333333,0,6113.1067)" />
    <path
       d="m 23774.9,6420.9 c 3.1,-15.9 7.9,-31.3 15,-44.9 13.1,-28.3 34.9,-52.4 60,-68.5 25.6,-15.1 54.9,-23.5 84.3,-22.6 27.6,0.7 55.7,9.6 82.6,25.8 13.2,7.5 25.3,16.4 36.9,25.8 -6,-10.7 -11.9,-21.3 -17.2,-32.7 -25.8,-58.6 -35.7,-126.4 -28.3,-191.8 3.5,-32.7 11.6,-64.6 23.5,-95 11.9,-29.6 29.1,-58.6 48.9,-83.7 42.5,-51.8 96.7,-86.7 156.2,-100.4 61.6,-13.8 127.7,-4.7 182.6,25.8 58.8,32.7 103.3,88.9 122.3,153.6 10.7,34.3 13.7,70.2 9.9,105.9 -1,7.4 -2.5,15.9 -4.5,26.3 l -7.4,25.5 c -6.1,18.1 -13.2,33.5 -23,48.6 -18.8,30.4 -43.6,56.2 -71.2,73.8 -28.4,17.5 -60.3,27.3 -95.2,29.6 -67.1,3.8 -133.5,-32.8 -168.2,-90.6 -36.7,-56.1 -41.8,-131.6 -13.9,-192.5 2,-5.2 6.8,-8.5 11.7,-7.6 h 2.5 c 3,1.5 5.8,4.1 7.6,6.8 1.2,3.2 2,6.9 1.2,10 -6.8,27.5 -8,55.5 -3,82.2 5.3,25.1 16.5,49.3 31.9,69.9 16.7,20.5 35.7,35.9 57.3,45 21,8.2 44.8,11.4 68.8,9 44.8,-4.5 86.1,-33.5 110.5,-76.8 5.5,-10.6 10.8,-22.8 14.4,-32.9 1,-2 1.8,-4.4 2,-6.6 l 3.3,-11.5 c 1.3,-5.9 2.3,-12.2 3.3,-18.1 2.5,-23.7 1,-49.6 -4.6,-74.6 -11.1,-48.7 -41.8,-92.2 -84.1,-120.2 -40.2,-25.8 -93.6,-35 -143.5,-23.6 -47.4,10 -94,38.8 -127.9,80.5 -17.2,21.4 -30.7,44.3 -41,69.4 -10.2,24.9 -17.3,52.3 -20.6,79 -6.8,56.5 1.1,112 23.1,162.1 21.5,49.5 57.2,93.4 100.3,124.9 40,28.7 89.1,47 146.8,53.9 47.4,6.2 95,5.4 162.9,-2.2 18.5,-1.8 36.7,-3.9 55.7,-6.2 36.5,-4.6 74.2,-9.2 112.2,-12 67.6,-4.1 123.3,0.5 173.5,13.5 114.4,27.6 219,96.5 293.4,193.2 7.6,10 6.6,24.4 -2.7,32.7 -4.3,3.8 -9.9,6.1 -15.5,5.3 -5.6,0 -11.1,-2.8 -14.7,-8.3 -68.9,-88.9 -164.6,-152.1 -270.2,-177.9 -23.3,-6.1 -47.1,-10 -73.2,-12.2 -65.8,-4.7 -134.2,4.4 -200.3,12.9 -17.7,3.1 -35.9,5.2 -53.9,7.6 -45.8,5.4 -109.9,10.7 -172,3.7 -4.8,-0.8 -8.8,-1.4 -13.1,-2.2 -11.9,0.8 -23.6,0.8 -36,0 -26.8,-1.5 -53.4,-8.3 -78,-18.9 -23.5,-9.9 -46.6,-24.4 -71.6,-45.8 -14.5,-12.1 -28.2,-25 -41.6,-37.1 -6.6,-6 -12.6,-12.4 -19.5,-18.3 -15.7,-14.6 -37.2,-33.7 -61.8,-47.4 -23.3,-13.5 -45.5,-20.4 -67.9,-21.2 -23.8,0 -47.6,6.9 -67.5,19.2 -20.1,12.9 -36.8,31.8 -46.9,53.9 -5.6,11.3 -9.4,23.5 -11.9,35.7 -1.5,12.1 -1.8,24.5 -1,37.4 2.8,24.2 13.1,48.7 28.3,65.3 16,17.5 36.8,28.1 58.8,30.4 21.8,0.8 43.3,-7 59.3,-21.1 7.6,-7.7 14.1,-17 18.4,-25.9 1.1,-3.2 2.3,-5.4 3.1,-7.7 l 2.5,-8.3 c 1.3,-4.5 2,-10 2.5,-16 1.3,-22.1 -7.6,-43.3 -22.5,-57.1 -8.1,-7.6 -17.2,-12.9 -27.1,-15.3 -9.6,-2.9 -20.5,-2.3 -30.9,0 -10.1,3.9 -19.5,9.2 -27.9,17.6 -7.8,7.5 -13.9,19.1 -17.7,30.5 -1.2,4.5 -6.1,7.6 -10.6,7.6 l -2.3,-0.8 c -5.6,-1.7 -7.8,-6.8 -7.1,-12.1 4.6,-33.6 26.4,-63.3 55.5,-74.7 29.1,-12.8 67.4,-6.9 92.4,13.8 13.7,11.2 23.8,24.9 30.9,41.1 6.6,15.7 10.2,33.5 9.9,51.6 0,8.4 -1,17.6 -3.3,26.6 l -3.6,12.1 c -1.7,4.1 -3,8.5 -5.3,12.3 -7.3,15.1 -17.9,28.9 -30.9,39.5 -22,19.1 -51.1,28.2 -81.2,25.9 -2.6,0 -5.1,0 -7.9,-0.7 -30.1,-3.8 -58.5,-19.8 -79.8,-44.3 -20.2,-22.6 -33.4,-53.1 -37,-86.6 -1.5,-16 -1,-32.7 1.8,-47.9"
       style="fill:#100f0d;fill-opacity:1;fill-rule:nonzero;stroke:none"
       transform="matrix(0.13333333,0,0,-0.13333333,0,6113.1067)" />
    <path
       d="m 23774.9,6684.8 c 3.1,16.1 7.9,31.3 15,45.7 13.1,28.1 34.9,52.7 60,67.9 25.6,15.8 54.9,23.4 84.3,22.6 27.6,-0.7 55.7,-9 82.6,-24.9 13.2,-8.5 25.3,-17 36.9,-26.1 -6,10.6 -11.9,21.5 -17.2,32.9 -25.8,57.6 -35.7,126.1 -28.3,190.8 3.5,33.6 11.6,65.5 23.5,95.8 11.9,29.1 29.1,58 48.9,83.2 42.5,52.2 96.7,87.4 156.2,100.2 61.6,14.6 127.7,4.5 182.6,-25.8 58.8,-32.5 103.3,-88.2 122.3,-153.7 10.7,-33.6 13.7,-70 9.9,-105 -1,-8.6 -2.5,-16.1 -4.5,-27.5 l -7.4,-25 c -6.1,-17.5 -13.2,-33.4 -23,-48.6 -18.8,-30.3 -43.6,-55.5 -71.2,-73.1 -28.4,-18.1 -60.3,-28.2 -95.2,-29.6 -67.1,-4.6 -133.5,32.1 -168.2,89.6 -36.7,56.5 -41.8,132.6 -13.9,193.2 2,4.8 6.8,7.6 11.7,7.6 l 2.5,-0.7 c 3,-0.7 5.8,-3 7.6,-6.1 1.2,-2.8 2,-6.8 1.2,-10.5 -6.8,-26.6 -8,-54.8 -3,-81.5 5.3,-25.8 16.5,-50.1 31.9,-70.7 16.7,-19.8 35.7,-35.1 57.3,-44.1 21,-9.4 44.8,-12.1 68.8,-9.4 44.8,5 86.1,33.7 110.5,77 5.5,10.5 10.8,22.3 14.4,32.7 1,1.6 1.8,3.8 2,6.1 l 3.3,11.5 c 1.3,6.1 2.3,13.2 3.3,18.4 2.5,24.1 1,50 -4.6,75.2 -11.1,48.7 -41.8,92 -84.1,119.4 -40.2,26.7 -93.6,35.8 -143.5,24.3 -47.4,-9.8 -94,-39.5 -127.9,-80.7 -17.2,-21.9 -30.7,-44.7 -41,-69.1 -10.2,-25.3 -17.3,-52.7 -20.6,-79.3 -6.8,-56.1 1.1,-112.4 23.1,-162 21.5,-49.9 57.2,-94.4 100.3,-125.4 40,-29 89.1,-47.2 146.8,-54.1 47.4,-5.9 95,-5.3 162.9,2.3 18.5,2.2 36.7,4.6 55.7,6.9 36.5,4.5 74.2,8.9 112.2,11.5 67.6,4.4 123.3,0 173.5,-12.9 114.4,-28.3 219,-96.8 293.4,-194.1 7.6,-9.9 6.6,-24.5 -2.7,-32.7 -4.3,-3.8 -9.9,-5.5 -15.5,-5.5 -5.6,0.8 -11.1,4 -14.7,8.5 -68.9,89.2 -164.6,153 -270.2,178.7 -23.3,6.3 -47.1,10 -73.2,11.5 -65.8,5.3 -134.2,-3.8 -200.3,-12.8 -17.7,-2.5 -35.9,-4.7 -53.9,-7 -45.8,-5.1 -109.9,-10.6 -172,-3.6 -4.8,0 -8.8,1.3 -13.1,2.1 -11.9,-1.6 -23.6,-1.6 -36,-0.8 -26.8,2.3 -53.4,8.4 -78,19.7 -23.5,9.2 -46.6,24.4 -71.6,45.1 -14.5,12.1 -28.2,25.2 -41.6,38 -6.6,6.1 -12.6,12.1 -19.5,18.1 -15.7,14.5 -37.2,33.5 -61.8,47.3 -23.3,13.7 -45.5,20.5 -67.9,20.5 -23.8,0.8 -47.6,-6.2 -67.5,-19 -20.1,-12.1 -36.8,-31.1 -46.9,-54 -5.6,-10.7 -9.4,-22.9 -11.9,-35.1 -1.5,-12 -1.8,-24.2 -1,-37.1 2.8,-25.2 13.1,-48.7 28.3,-65.6 16,-17.5 36.8,-29 58.8,-30.2 21.8,-1.7 43.3,5.9 59.3,21.3 7.6,7.4 14.1,16.4 18.4,25.8 1.1,2.4 2.3,4.4 3.1,7.5 l 2.5,7.8 c 1.3,4.4 2,10.5 2.5,15.7 1.3,22.1 -7.6,44.3 -22.5,58 -8.1,7.4 -17.2,13 -27.1,15.2 -9.6,2.3 -20.5,2.3 -30.9,-0.8 -10.1,-3 -19.5,-9.1 -27.9,-16.7 -7.8,-8.5 -13.9,-19 -17.7,-30.5 -1.2,-4.6 -6.1,-8.4 -10.6,-7.5 h -2.3 c -5.6,2 -7.8,6.7 -7.1,12.9 4.6,33.6 26.4,62.3 55.5,74.6 29.1,12.9 67.4,7 92.4,-14.6 13.7,-11.4 23.8,-25.2 30.9,-40.2 6.6,-16.1 10.2,-33.6 9.9,-51.8 0,-9.1 -1,-17.6 -3.3,-26.6 l -3.6,-12.4 c -1.7,-4.4 -3,-8.2 -5.3,-11.9 -7.3,-16.2 -17.9,-29.7 -30.9,-39.6 -22,-19 -51.1,-28.3 -81.2,-26.5 -2.6,0 -5.1,0.6 -7.9,0.6 -30.1,4.5 -58.5,19.9 -79.8,44 -20.2,23 -33.4,54 -37,87.6 -1.5,16.1 -1,32 1.8,47.1"
       style="fill:#100f0d;fill-opacity:1;fill-rule:nonzero;stroke:none"
       transform="matrix(0.13333333,0,0,-0.13333333,0,6113.1067)" />
    <path
       d="m 25281.7,6521.3 c 0,-89.6 -67.6,-162.8 -150.9,-162.8 -83.6,0 -150.7,73.2 -150.7,162.8 0,90.6 67.1,162.7 150.7,162.7 83.3,0 150.9,-72.1 150.9,-162.7"
       style="fill:#100f0d;fill-opacity:1;fill-rule:nonzero;stroke:none"
       transform="matrix(0.13333333,0,0,-0.13333333,0,6113.1067)" />
    <path
       d="m 43263.4,6649.1 c -3.3,15.9 -8.4,31.2 -15.2,44.9 -13.7,28.9 -34.9,52.4 -60,68.4 -25.1,15.3 -55,23.6 -84.4,22.7 -26.5,-0.5 -54.9,-9.5 -82.2,-25.7 -12.9,-7.6 -25.9,-16.7 -36.8,-25.9 6.6,10.7 11.9,21.4 17.3,32.8 25.5,58.5 35.7,126.3 28.6,191.6 -3.8,32.9 -12.4,64.8 -24.3,95.1 -12.2,29.6 -28.7,58.7 -48.6,83.8 -42.6,51.7 -96.8,86.6 -156.1,100.3 -62.2,13.7 -127.6,4.7 -182.5,-25.8 -59.8,-32.7 -104.4,-89.1 -122.6,-153.6 -10.9,-34.3 -13.7,-70.2 -10.1,-105.9 1,-7.3 2.5,-15.9 4.8,-26.6 l 7.8,-25.2 c 6.1,-18.1 12.9,-33.4 22.6,-48.6 19,-30.4 43.5,-55.3 71.9,-73.7 27.8,-17.6 60,-27.3 94.2,-29.6 66.6,-3.9 133.7,32.5 168.9,90.5 35.4,56.1 41.5,132.3 13.7,192.5 -2.3,5.3 -7.1,8.2 -11.7,7.7 h -3 c -3.1,-1.6 -6.3,-4.2 -7.6,-7 -1.3,-3.1 -1.3,-6.8 -0.8,-10 7.1,-27.4 7.9,-55.7 2.1,-82.3 -4.4,-24.9 -15.8,-49.2 -31.7,-69.7 -16,-20.5 -36,-35.9 -57.5,-45 -20,-8.1 -44.5,-11.4 -68.1,-9 -45.1,5.2 -86.6,33.5 -110.4,76.8 -5.9,10.7 -11.2,22.8 -14.7,33.5 0,1.4 -1.3,3.8 -1.8,6 l -3,11.5 c -1.8,5.9 -2.8,12.1 -3,18.1 -3.3,23.7 -1.6,49.6 3.7,74.7 11.2,48.6 42.6,92.1 84.1,120 40.8,25.9 94,35.1 144.1,24.3 46.8,-9.7 93.4,-39.3 126.9,-81.1 17.7,-21.4 31.4,-44.3 42,-69.4 10.1,-24.9 16.5,-52.3 20.3,-78.9 6.3,-56.6 -1.3,-112 -23.6,-162 -21,-49.7 -57,-93.6 -99.7,-125.2 -40.3,-28.7 -89.4,-47.1 -147.2,-53.9 -47.3,-6.1 -95.5,-5.3 -162.8,2.4 -18.5,1.7 -36.5,3.8 -54.7,6.1 -37.5,4.5 -75.2,9.2 -113.7,12 -66.9,4.1 -122.6,-0.7 -172.5,-12.9 -114.9,-28 -219,-97.1 -293.5,-193.8 -7.8,-10.1 -6,-24.2 2.8,-32.7 3.8,-3.8 9.1,-6.1 15.5,-5.2 5,0 11.1,2.8 14.4,8.2 68.6,88.9 164.8,152.2 270.7,177.9 22.5,6.2 47.3,10 72.9,12.2 65.4,4.7 134,-4.5 200.1,-12.8 17.5,-3.2 36,-5.3 53.2,-7.7 46.3,-5.4 110.6,-10.5 172.4,-3.7 5.1,0.6 8.9,1.4 13.4,2 12.2,-0.6 23.4,-0.6 35.8,0 27.3,1.7 53.9,8.5 78,19.1 23,9.9 46.8,24.5 71.9,45.7 14.4,12.2 28.1,25.1 41,37.1 6.8,6.3 13.7,12.5 19.7,18.4 15.8,15.3 37.8,33.6 61.6,47.2 23.5,13.8 45.6,20.7 68.6,21.2 23.3,0 47.1,-6.1 67.6,-18.9 19.8,-13 36.5,-31.1 46.9,-54 5.8,-11.3 9.3,-23.5 11.9,-35 1.3,-13 1.8,-25.2 0.5,-37.2 -3.1,-25 -12.9,-49.7 -27.9,-66.1 -16.4,-17.6 -37.2,-28.2 -58.7,-29.9 -22,-1.4 -43.6,6.1 -59.8,20.6 -7.6,7.6 -13.9,16.6 -18.7,25.7 -0.8,3.3 -1.3,5.5 -2.8,7.8 l -2.5,8.3 c -1.6,4.4 -2.6,10.8 -2.6,16.2 -0.7,21.8 7.1,43.1 23.1,56.8 7.8,7.7 17.2,13 26.6,15.4 10.1,2.8 20.7,2.3 30.9,0 10.3,-4.1 20,-9.2 27.8,-17.6 7.6,-7.6 14.5,-18.4 18.5,-30.4 1,-4.4 5.1,-7.7 10.4,-7.7 l 2.5,0.9 c 4.3,1.6 7.6,6.8 6.6,12 -4.8,33.6 -26.6,63.4 -55.5,74.7 -28.8,12.8 -67.8,6.9 -92.1,-13.8 -13.7,-11.3 -24.4,-24.9 -31.4,-41 -6.6,-16 -10.2,-33.6 -9.7,-50.9 0,-9.3 0.8,-18.4 3.1,-27.4 l 4,-12.4 c 1.3,-3.8 2.6,-8.2 5.1,-12 7.6,-15.2 18.2,-28.9 30.1,-39.5 22.3,-19.1 52.2,-28.2 81.8,-26.1 3.1,0 5.1,0 8.4,0.9 29.6,3.8 58.5,19.7 78.7,44.2 20.8,22.8 33.7,53.2 37.8,86.8 1.2,15.7 0.7,32.6 -1.8,47.8"
       style="fill:#100f0d;fill-opacity:1;fill-rule:nonzero;stroke:none"
       transform="matrix(0.13333333,0,0,-0.13333333,0,6113.1067)" />
    <path
       d="m 43263.4,6385.2 c -3.3,-16.1 -8.4,-31.4 -15.2,-45.7 -13.7,-28.1 -34.9,-52.4 -60,-67.7 -25.1,-15.9 -55,-23.6 -84.4,-22.8 -26.5,0.7 -54.9,9.1 -82.2,25.8 -12.9,7.6 -25.9,16.1 -36.8,25.2 6.6,-10.8 11.9,-21.4 17.3,-32.8 25.5,-57.7 35.7,-126.2 28.6,-190.8 -3.8,-33.6 -12.4,-65.6 -24.3,-95.9 -12.2,-29 -28.7,-58 -48.6,-83.2 -42.6,-52.3 -96.8,-87.5 -156.1,-100.2 -62.2,-14.6 -127.6,-4.5 -182.5,25.8 -59.8,32.7 -104.4,89 -122.6,153.8 -10.9,33.5 -13.7,69.9 -10.1,105 1,8.5 2.5,16 4.8,27.3 l 7.8,25.1 c 6.1,17.2 12.9,33.4 22.6,48.8 19,30.1 43.5,55.3 71.9,73 27.8,18.1 60,28.1 94.2,29.7 66.6,4.5 133.7,-32.2 168.9,-89.8 35.4,-56.5 41.5,-132.5 13.7,-193.4 -2.3,-4.7 -7.1,-7.3 -11.7,-7.3 l -3,0.6 c -3.1,0.6 -6.3,2.9 -7.6,6.2 -1.3,2.7 -1.3,6.9 -0.8,10.4 7.1,26.6 7.9,55.7 2.1,81.4 -4.4,25.8 -15.8,50.3 -31.7,70.8 -16,20 -36,34.8 -57.5,44.1 -20,9.1 -44.5,12.1 -68.1,9.1 -45.1,-4.7 -86.6,-33.2 -110.4,-76.7 -5.9,-10.7 -11.2,-22.2 -14.7,-32.7 0,-1.7 -1.3,-3.8 -1.8,-6.1 l -3,-11.4 c -1.8,-6.2 -2.8,-13 -3,-18.3 -3.3,-24.4 -1.6,-50.3 3.7,-74.8 11.2,-49.3 42.6,-92.6 84.1,-120 40.8,-26.7 94,-35.2 144.1,-24.3 46.8,9.8 93.4,39.5 126.9,81.3 17.7,21.3 31.4,44.2 42,68.5 10.1,25.2 16.5,52.4 20.3,79.3 6.3,56.1 -1.3,112.4 -23.6,161.9 -21,50.1 -57,94.2 -99.7,125.5 -40.3,29 -89.4,47.2 -147.2,54.1 -47.3,6 -95.5,5.1 -162.8,-2.5 -18.5,-2 -36.5,-4.4 -54.7,-6.9 -37.5,-4.5 -75.2,-8.8 -113.7,-11.3 -66.9,-4.4 -122.6,0 -172.5,12.9 -114.9,28.3 -219,96.8 -293.5,194 -7.8,10 -6,24.6 2.8,32.8 3.8,3.9 9.1,5.3 15.5,5.3 5,-0.6 11.1,-3.8 14.4,-8.2 68.6,-89.2 164.8,-152.3 270.7,-179.1 22.5,-6 47.3,-9.7 72.9,-11.2 65.4,-5.3 134,3.8 200.1,12.8 17.5,2.5 36,4.7 53.2,6.8 46.3,5.6 110.6,11.5 172.4,3.9 5.1,0 8.9,-1.4 13.4,-1.4 12.2,0.8 23.4,0.8 35.8,0 27.3,-2.5 53.9,-8.4 78,-19.1 23,-9.9 46.8,-25.1 71.9,-45.7 14.4,-12.2 28.1,-25.1 41,-38 6.8,-6.1 13.7,-12.1 19.7,-18.1 15.8,-14.5 37.8,-33.4 61.6,-47.2 23.5,-13.7 45.6,-20.5 68.6,-20.5 23.3,-0.9 47.1,5.9 67.6,18.8 19.8,12.2 36.5,31.3 46.9,54.1 5.8,10.7 9.3,23 11.9,35.1 1.3,12 1.8,24.2 0.5,37.1 -3.1,25.2 -12.9,48.7 -27.9,65.7 -16.4,17.4 -37.2,28.6 -58.7,30.1 -22,1.8 -43.6,-5.9 -59.8,-21.2 -7.6,-7.5 -13.9,-16.5 -18.7,-25.9 -0.8,-2.1 -1.3,-4.4 -2.8,-7.7 l -2.5,-7.4 c -1.6,-4.5 -2.6,-10.7 -2.6,-15.9 -0.7,-22.1 7.1,-44.3 23.1,-58 7.8,-7.4 17.2,-12.1 26.6,-15.2 10.1,-2.3 20.7,-2.3 30.9,0.8 10.3,3.1 20,9.1 27.8,16.8 7.6,8.4 14.5,18.9 18.5,30.4 1,4.6 5.1,8.2 10.4,7.5 h 2.5 c 4.3,-1.4 7.6,-6.9 6.6,-12.9 -4.8,-32.7 -26.6,-62.3 -55.5,-74.6 -28.8,-12.9 -67.8,-7 -92.1,14.5 -13.7,11.5 -24.4,25.3 -31.4,40.3 -6.6,16.1 -10.2,33.4 -9.7,51.8 0,9.1 0.8,17.6 3.1,26.6 l 4,12.4 c 1.3,4.4 2.6,8.1 5.1,12 7.6,16 18.2,29.7 30.1,40.3 22.3,18.2 52.2,28.3 81.8,25.8 3.1,0 5.1,-0.7 8.4,-0.7 29.6,-4.5 58.5,-19.8 78.7,-44.1 20.8,-22.9 33.7,-53.9 37.8,-87.4 1.2,-16.2 0.7,-32.1 -1.8,-47.2"
       style="fill:#100f0d;fill-opacity:1;fill-rule:nonzero;stroke:none"
       transform="matrix(0.13333333,0,0,-0.13333333,0,6113.1067)" />
    <path
       d="m 41756.6,6548.8 c 0,89.5 67.6,162.7 150.2,162.7 84.1,0 151.7,-73.2 151.7,-162.7 0,-89.8 -67.6,-162.7 -151.7,-162.7 -82.6,0 -150.2,72.9 -150.2,162.7"
       style="fill:#100f0d;fill-opacity:1;fill-rule:nonzero;stroke:none"
       transform="matrix(0.13333333,0,0,-0.13333333,0,6113.1067)" />
    <path
       d="m 41961.7,6448.9 h -16858 v 135.5 h 16858 v -135.5"
       style="fill:#100f0d;fill-opacity:1;fill-rule:nonzero;stroke:none"
       transform="matrix(0.13333333,0,0,-0.13333333,0,6113.1067)" />
    <path
       d="m 28091.4,6521.3 c 0,-92.9 -166.7,-169 -372,-169 -205.4,0 -371.5,76.1 -371.5,169 0,93.7 166.1,169.6 371.5,169.6 205.3,0 372,-75.9 372,-169.6"
       style="fill:#100f0d;fill-opacity:1;fill-rule:nonzero;stroke:none"
       transform="matrix(0.13333333,0,0,-0.13333333,0,6113.1067)" />
    <path
       d="m 27208.1,6521.3 c 0,-153.8 -38,-279.2 -84.3,-279.2 -46.9,0 -84.6,125.4 -84.6,279.2 0,154.4 37.7,280 84.6,280 46.3,0 84.3,-125.6 84.3,-280"
       style="fill:#100f0d;fill-opacity:1;fill-rule:nonzero;stroke:none"
       transform="matrix(0.13333333,0,0,-0.13333333,0,6113.1067)" />
    <path
       d="m 28395.5,6521.3 c 0,-153.8 -38,-279.2 -84.3,-279.2 -46.6,0 -84.6,125.4 -84.6,279.2 0,154.4 38,280 84.6,280 46.3,0 84.3,-125.6 84.3,-280"
       style="fill:#100f0d;fill-opacity:1;fill-rule:nonzero;stroke:none"
       transform="matrix(0.13333333,0,0,-0.13333333,0,6113.1067)" />
    <path
       d="m 39694.8,6541.9 c 0,-93 -166.4,-169 -371.5,-169 -205.9,0 -371.5,76 -371.5,169 0,93.5 165.6,169.6 371.5,169.6 205.1,0 371.5,-76.1 371.5,-169.6"
       style="fill:#100f0d;fill-opacity:1;fill-rule:nonzero;stroke:none"
       transform="matrix(0.13333333,0,0,-0.13333333,0,6113.1067)" />
    <path
       d="m 38811.5,6541.9 c 0,-154.4 -38,-279.1 -84.1,-279.1 -46.6,0 -84.6,124.7 -84.6,279.1 0,154.4 38,279.9 84.6,279.9 46.1,0 84.1,-125.5 84.1,-279.9"
       style="fill:#100f0d;fill-opacity:1;fill-rule:nonzero;stroke:none"
       transform="matrix(0.13333333,0,0,-0.13333333,0,6113.1067)" />
    <path
       d="m 39999.2,6541.9 c 0,-154.4 -38,-279.1 -84.6,-279.1 -46.4,0 -84.4,124.7 -84.4,279.1 0,154.4 38,279.9 84.4,279.9 46.6,0 84.6,-125.5 84.6,-279.9"
       style="fill:#100f0d;fill-opacity:1;fill-rule:nonzero;stroke:none"
       transform="matrix(0.13333333,0,0,-0.13333333,0,6113.1067)" />
  </g>
</svg>
