<?xml version="1.0" encoding="UTF-8" standalone="no"?>

<svg
   version="1.1"
   id="svg1"
   viewBox="0 0 830.4856 849.06421"
   xmlns="http://www.w3.org/2000/svg"
>
  <defs
     id="defs1" />
  <g transform="translate(-60.011719,-3110.5334)">
    <g id="group-R5" style="display:inline">
      <g id="g791" style="display:inline">
        <path
           id="path507"
           d="m 5104.79,474.801 c 0,0 6.84,2.199 20.24,6.597 3.33,1.102 7.06,2.305 11.2,3.602 4.09,1.5 8.29,3.898 12.99,6 9.33,4.5 20.36,9.199 31.43,17.203 23.3,13.695 48.62,36.496 72.7,67.199 23.9,30.996 45.64,71.399 58.8,120.098 12.79,48.398 18.66,105.602 4.69,163.898 -5.77,29.204 -18.3,57.704 -34.14,86.004 -15.6,28.496 -37.08,54.898 -61.75,79.498 -49.32,49.5 -116.41,88.5 -192.72,111.8 -38.19,11.6 -78.85,19.2 -120.71,21.6 -41.69,2.4 -85.35,-1.1 -128.82,-9.3 -43.54,-8.3 -87.36,-21.6 -129.94,-40.5 -42.46,-19.2 -83.72,-43.6 -122.2,-73.2 -76.87,-58.698 -142.93,-139.898 -180.78,-235.101 -18.08,-47.398 -28.62,-98.097 -24.32,-146.398 1.87,-23.899 7.69,-48 17.08,-68.098 9.41,-20.801 23.52,-40.402 40.75,-56.504 34.11,-32.996 80.69,-49.5 120.91,-38.898 20.16,4.898 39.05,16 55.22,33 16.13,16.801 29.22,39 37.57,63.5 8.42,24.597 12.36,51.301 11.04,77.5 -0.78,6.402 -0.96,13 -1.98,19.402 -1.47,6.297 -2.16,12.797 -3.99,18.899 -2.2,6.101 -3.28,12.097 -6.1,18.5 -2.91,6.199 -4.96,12.898 -8.45,19 -24.7,50.097 -68.06,93.5 -120.5,127.699 -52.51,34.601 -113.53,60 -177.95,78.699 -15.75,5.801 -32.48,8.301 -48.8,12.602 -16.44,3.8 -32.84,8.3 -49.77,10.296 -16.84,2.602 -33.73,5.204 -50.66,7.903 -17.12,1.301 -34.29,2.699 -51.51,4 -138,8.601 -282.3,-13.098 -419.1,-65.598 -67.97,-27 -135.26,-59.703 -197.41,-102.301 -62.12,-42.5 -120.43,-92.402 -172.75,-149.699 0,0 5.67,7.098 16.61,20.899 11.23,13.5 26.38,35.097 50.51,59.101 45.99,49.797 120.64,118.496 232.17,179.797 55.06,31.801 120.38,58.801 193.24,82 72.92,23.5 155.11,37.9 243.43,43 88.31,4.6 183.41,-2.2 280.15,-26.3 12.03,-3.3 24.13,-6.5 36.31,-9.8 l 18.32,-5.1 18.24,-6.1 c 24.29,-8.501 48.67,-17.997 72.74,-29.399 48.07,-22.699 95.71,-52 138.11,-91.699 21.29,-19.7 40.71,-42.602 57.52,-67.903 16.72,-25.801 30.78,-52.297 40.47,-84.699 8.95,-31.598 12.22,-64.297 10.49,-96.797 -1.63,-32.5 -8.54,-64.902 -21.11,-95.902 -12.47,-30.903 -30.35,-60.801 -55.09,-86.598 -24.56,-25.801 -56.79,-47.203 -93.36,-58.301 -36.42,-11.3 -75.93,-11.402 -112.29,-2.8 -36.56,8.601 -69.6,25.898 -97.78,48.097 -28.21,22.301 -52.37,49.403 -70.56,80.703 -9.11,15.7 -17.13,32.2 -23.05,49.7 -6.18,17.3 -10.14,34.398 -13.23,52 -11.55,70.398 -0.29,140.5 22.04,203.699 46.29,126.199 134.43,233.799 245.1,309.399 110.57,75.3 244.85,118.6 381.05,116.8 136.53,-2 271.63,-52.4 372.07,-145.1 25.47,-22.7 47.06,-49.6 66.79,-77.4 18.77,-28.5 34.82,-58.898 46.16,-91 11.05,-32.5 18.58,-66.5 19.28,-100.297 2.1,-33.801 -2.13,-67.305 -9.08,-99.703 -15.25,-64.398 -45.48,-124.898 -90.42,-171.801 -43.51,-47.898 -103.7,-78.898 -165.1,-87.398"
           style="display:inline;fill:#3f3b3c;fill-opacity:1;fill-rule:nonzero;stroke:none"
           transform="matrix(0.13333333,0,0,-0.13333333,0,4000)" />
        <path
           id="path508"
           d="m 2598.74,2397.6 c 0,0 -7.59,-8 -22.46,-23.5 -15.21,-15.2 -36.46,-39.2 -64.03,-70.8 -26.57,-32.5 -59.48,-72.8 -93.62,-123.9 -34.54,-50.7 -71.64,-111.2 -106.08,-183.1 -34.4,-71.8 -67.52,-154.4 -91.33,-248.1 -23.49,-93.6 -40.08,-198.2 -38.55,-310.6 0.09,-56.2 6.11,-114.1 15,-173.4 10.03,-59.2 25,-119.3 44.86,-179.7 20.33,-60.3 46.85,-120.301 78.93,-179.098 8.45,-14.402 16.06,-29.5 25.31,-43.703 9.16,-14.297 18.4,-28.597 27.68,-42.996 10.12,-13.902 20.29,-27.801 30.54,-41.805 10.22,-13.996 21.97,-26.996 32.95,-40.597 45.59,-53.301 97.8,-103 156.63,-146.301 58.86,-43.301 124.46,-80.5 195.15,-109.801 141.12,-58.301 303.9,-85.297 466.69,-63.097 81.15,11.199 162.05,34.796 237.37,72.199 75.52,37.5 146.24,88.699 208.12,150.898 124.24,123.504 211.6,295.203 225.16,479.801 6.67,91.9 -7.37,186.9 -40.49,275.9 -33.08,89 -87.43,171.4 -159.91,235.2 -72.44,62.7 -165.2,106.2 -263.57,120 -49.14,6.8 -99.55,6.5 -148.78,-2.2 -49.21,-9.2 -96.48,-26.9 -139.85,-53.2 -86.17,-52.8 -156.68,-138.6 -186.29,-239.1 -15.22,-50 -19.67,-103.5 -11.4,-155.8 8.07,-52.2 28.81,-103.3 61.88,-145.2 16.54,-20.8 36.15,-39.4 58.58,-54 22.2,-14.3 47.53,-24.5 74.03,-30 52.85,-11.3 111.49,-4.3 158.25,25.5 23.21,14.8 43.7,34.7 56.56,59.5 13.07,24.7 19.9,53.1 20.42,81.7 0.56,28.6 -5.16,57.8 -18.37,83.8 -12.97,26.1 -33.44,48.9 -59.71,63.3 0,0 3.08,-1.7 9.14,-5 6.26,-3 14.76,-8.9 25.18,-17.7 9.89,-9.4 21.76,-21.9 31.49,-39.7 9.73,-17.7 18.15,-40.1 21.7,-66.5 3.52,-26.3 2.33,-56.9 -7.94,-88.6 -10.32,-31.4 -32.06,-63.5 -64.08,-86.6 -31.77,-23.5 -73.02,-39.2 -118.08,-42.3 -44.91,-3.6 -94.29,4.3 -139.88,28.8 -45.29,24.3 -84.9,63.5 -113.2,111.9 -28.36,48.4 -46.19,105.5 -50.09,166.6 -7.25,122.1 44.38,255.7 146.28,352.3 50.47,48.4 113.69,88.5 185.51,111 71.39,23.1 149.58,29.2 227.36,19.9 77.58,-10.4 155.4,-35.3 226.2,-77.3 35.37,-20.8 69.48,-45.6 100.29,-74.1 30.8,-28.5 58.98,-60.3 84.08,-94.7 50.42,-68.8 87.85,-148.3 110.87,-233.1 11.55,-42.3 19.53,-86.1 23.61,-130.6 0.75,-11.1 1.81,-22.3 2.27,-33.5 l 0.14,-33.8 c -0.07,-11.3 0.28,-22.6 -0.19,-33.9 l -2.89,-33.8 C 4009.9,903.5 3928.01,726.602 3800.2,587 3736.35,517.102 3660.6,456.203 3575.29,409.602 c -85.22,-47 -179.73,-78.801 -276.73,-94.5 -97.13,-15.801 -197.05,-15.903 -295.12,-1.5 -98.02,14.8 -194.11,44.3 -284.53,86.8 C 2628.52,443 2543.75,498.898 2469.12,567 c -73.96,68.402 -137.41,147.801 -189.03,234 -103.87,172.402 -158.26,372 -163.4,571.3 -2.91,99.8 8.35,199.5 30.83,295.7 22.41,96.3 56,189.3 98.7,277.1 86.22,175.4 208.66,329.5 352.52,452.5"
           style="display:inline;fill:#3f3b3c;fill-opacity:1;fill-rule:nonzero;stroke:none"
           transform="matrix(0.13333333,0,0,-0.13333333,0,4000)" />
        <path
           id="path509"
           d="m 2468.74,2265.2 c 0,0 -17.82,-13.8 -51.99,-40.1 -33.85,-26.6 -83.98,-65.9 -146.13,-119.7 -61.89,-54 -136.42,-122 -215.3,-208.5 -79.11,-86 -162.32,-191.1 -239.68,-316.8 -76.15,-124.6 -140.57,-275.5 -168.25,-445.8 -13.65,-85 -17.68,-174.698 -7.66,-265.597 1.96,-22.902 6.94,-45.402 10.21,-68.402 2.62,-11.301 5.26,-22.602 7.91,-34 2.75,-11.301 4.89,-22.899 8.78,-34 13.03,-45.301 29.37,-90.301 51.66,-132.5 43.66,-84.301 110.74,-160.403 202.46,-194.098 45.25,-16.902 95.16,-23.203 142.82,-14.101 23.98,4.601 46.37,12.796 67.51,25.5 20.93,12.699 40.02,29.296 55.86,48.699 15.83,19.398 28.42,41.601 36.14,65.597 7.58,23.801 9.82,49.704 5.87,74.305 -7.6,49.297 -44.6,95.5 -92.85,118.996 -24.07,12.102 -51.56,17.301 -78.49,14.199 -13.56,-1.296 -26.8,-5.398 -38.74,-11.296 -12.03,-6.301 -22.51,-15.602 -32,-26 -17.87,-21.7 -30.13,-49.403 -31.55,-78.602 -0.41,-14.5 1.22,-29.5 7.48,-43 6.29,-13.5 16.55,-25 29.35,-33.5 0,0 -1.53,0.902 -4.53,2.801 -2.84,2.097 -7.98,4.101 -12.79,9.301 -10.66,8.898 -23.75,27.398 -27,55.101 -1.76,13.598 -1.2,29.297 2.98,45.695 4.03,16.403 10.8,34.102 22.64,50.704 11.71,16.5 28.19,32.398 50.42,42.3 21.75,9.399 47.26,13.899 73.76,11.496 52.71,-4.796 108.91,-34.796 145.06,-88.496 17.9,-26.504 30.45,-60.5 31.65,-95.8 1.14,-35.102 -6.05,-72 -22.63,-105.301 C 2235.69,440.602 2211.57,410 2181.08,384.902 2150.83,360 2112.45,340.602 2071.8,332 c -81.84,-18.297 -171.79,-0.301 -248.26,44.801 -77.1,46 -137.5,118.601 -179.58,200 -21.54,40.699 -38.17,84.101 -51.82,128.699 l -5.42,16.699 -4.23,17.102 c -2.82,11.402 -5.63,22.801 -8.46,34.301 -5.41,23 -8.46,46.597 -12.75,70.101 -25.42,189.497 7.82,391.697 88.01,575.097 39.67,91.7 91.41,180.1 150.72,260.8 59.25,81.1 124.98,157.8 196.18,228.6 71.42,70.5 147.56,135.7 227.03,194.9 79.54,59.2 161.94,112.9 245.52,162.1"
           style="display:inline;fill:#3f3b3c;fill-opacity:1;fill-rule:nonzero;stroke:none"
           transform="matrix(0.13333333,0,0,-0.13333333,0,4000)" />
        <path
           id="path510"
           d="m 6678.73,435 c 0,0 -1323.68,-122.598 -1416.62,-4.598 0,0 -41.67,122.5 1416.62,4.598"
           style="display:inline;fill:#3f3b3c;fill-opacity:1;fill-rule:nonzero;stroke:none"
           transform="matrix(0.13333333,0,0,-0.13333333,0,4000)" />
        <path
           id="path511"
           d="m 678.063,6671 c 0,0 122.558,-1323.6 4.593,-1416.6 0,0 -122.562,-41.6 -4.593,1416.6"
           style="display:inline;fill:#3f3b3c;fill-opacity:1;fill-rule:nonzero;stroke:none"
           transform="matrix(0.13333333,0,0,-0.13333333,0,4000)" />
        <path
           id="path512"
           d="m 3416.08,1202.5 c 0,0 -2.91,5.2 -7.92,14.3 -5,9.1 -12.02,22.3 -20.74,37.3 -8.73,15 -19.26,31.9 -31.67,47.3 -12.47,15.5 -26.52,29.3 -41.02,37.8 -14.66,9.2 -30.28,15.1 -42.83,17.3 -12.83,2.6 -21.35,2 -29.86,2.2 -16.68,0.3 -36.04,-2.9 -65.88,2.1 0,0 -1.83,0.6 -4.47,2.4 -2.63,1.7 -6.09,4.5 -9.03,9.5 -2.77,4.9 -5.12,12.1 -4,22.2 1.13,9.9 5.7,23 17.7,36.5 11.69,13.3 32.35,27.2 61.56,32.3 28.99,5 65.26,-1 96.97,-21.3 15.96,-10 30.92,-23.4 43.89,-40.1 6.61,-8.2 12.36,-17.6 17.67,-27.6 4.74,-9.8 9.07,-19.9 12.28,-30.7 13.58,-43.1 12.67,-90.2 7.35,-141.5"
           style="display:inline;fill:#3f3b3c;fill-opacity:1;fill-rule:nonzero;stroke:none"
           transform="matrix(0.13333333,0,0,-0.13333333,0,4000)" />
        <path
           id="path513"
           d="m 623.508,5013.4 c 0,0 1.332,7 3.933,20.8 0.668,3.5 1.414,7.4 2.247,11.7 0.953,4.3 2.824,8.7 4.414,13.7 3.414,10 6.867,21.8 13.703,34 11.418,25.6 31.965,54.5 61.863,83.4 30.059,28.6 70.918,56.3 122.5,75.5 51.332,18.7 113.98,31.1 182.662,20.6 34.49,-4.1 69.54,-16.2 103.29,-32 34.25,-15.7 66.72,-38.3 97.17,-65 61.22,-53.4 110.72,-127.6 142.41,-214.1 15.77,-43.2 26.99,-89.8 32.08,-138.7 5.18,-49.1 3.38,-99.6 -4.08,-150.7 -7.58,-51 -21.21,-102.5 -41.58,-152.6 -20.61,-50.1 -47.54,-99 -80.95,-144.9 -66.67,-91.7 -160.09,-172.1 -276.986,-220 -58.621,-23 -124.469,-38.3 -194.551,-32.5 -34.938,2.8 -69.918,10.6 -104.461,26.6 -33.918,15.5 -64.359,37.6 -89.945,65.2 -25.727,27.4 -46.704,60.6 -58.985,98.8 -12.738,37.9 -14.847,81.6 -3.933,122.4 10.515,41.1 34.515,78.2 64.546,105.5 30.106,27.5 65.583,46.6 102.762,58.4 37.235,11.8 76.524,16.6 116.121,13.6 9.899,-1.3 19.821,-2.1 29.684,-3.9 9.836,-2.3 19.758,-4 29.469,-7.2 19.918,-6.2 37.797,-13.9 54.824,-23.1 69.025,-36.9 121.555,-95.8 159.435,-159.2 38.29,-63.8 63.26,-133.7 80.23,-204.8 5.44,-17.6 7.37,-36 11.08,-54 3.22,-18.1 7.04,-36.2 8.29,-54.6 1.81,-18.4 3.63,-36.8 5.45,-55.2 0.39,-18.5 0.78,-37.1 1.18,-55.7 0.39,-148.6 -33.42,-299.2 -99.12,-436.7 -33.54,-68.2 -73.04,-134.4 -122.092,-193.8 -48.922,-59.3 -104.836,-113.2 -166.887,-159.4 0,0 6.543,6.4 19.157,18.6 12.363,12.5 32.113,29.3 53.667,55.3 44.942,49.6 105.555,128.2 156.435,240 26.66,55.1 47.92,119.7 65.38,190.3 17.71,70.6 26.37,149.1 26.34,231.9 -0.43,82.7 -11.46,170.3 -37.67,257.6 -3.49,10.8 -6.99,21.7 -10.51,32.7 l -5.28,16.4 -6.22,16.1 c -8.6,21.4 -17.93,42.7 -28.8,63.2 -21.55,41.2 -48.092,80.1 -80.647,112.3 -16.106,16.3 -34.059,30.3 -53.106,42 -18.726,11.4 -40.351,21.6 -59.722,26.6 -40.469,9.7 -87.782,6.9 -128.188,-11 -40.57,-17.3 -72.933,-48.3 -82.906,-84.5 -10.395,-36.3 0.266,-79 28.836,-113.8 13.969,-17.3 31.426,-32.9 51.195,-44 9.821,-5.6 20.039,-10.6 30.563,-14 10.562,-3.8 22.515,-6.5 34.203,-8.6 47.418,-7.7 99.715,-0.5 150.301,17.2 101.511,36.6 194.471,109.1 260.701,202 66.5,92.8 107.14,206.7 110.5,322.6 3.53,114.9 -33.78,234.5 -107.46,325.2 -17.93,23.1 -39.54,42.7 -61.88,61.3 -23.09,17.6 -47.8,33.2 -74.47,45 -26.4,11.2 -54.07,20 -83.235,23 -28.93,4.4 -58.692,3.2 -88.113,-0.3 -58.672,-8.4 -116.711,-30.2 -164.364,-67.2 -48.691,-35.7 -84.547,-88.4 -100.48,-148"
           style="display:inline;fill:#3f3b3c;fill-opacity:1;fill-rule:nonzero;stroke:none"
           transform="matrix(0.13333333,0,0,-0.13333333,0,4000)" />
        <path
           id="path514"
           d="m 2543,2509 c 0,0 -7.26,-8.2 -21.5,-24.3 -13.92,-16.5 -36.11,-39.6 -65.79,-69.6 -30.57,-29.1 -68.75,-65.1 -118.04,-103.1 -48.9,-38.4 -108,-80.1 -179.34,-119.7 -71.23,-39.6 -154.2,-78.5 -250.12,-108.3 -95.8,-29.5 -204.12,-52.2 -323,-55.9 -59.38,-2.4 -120.97,1.3 -184.31,8.2 -63.23,8.2 -127.89,21.7 -193.26,40.7 -65.24,19.4 -130.65,45.7 -195.22,78.4 -15.904,8.6 -32.432,16.4 -48.143,25.9 -15.742,9.5 -31.586,19.1 -47.539,28.7 -15.371,10.6 -30.843,21.2 -46.418,32 -15.558,10.7 -30.093,23.1 -45.336,34.7 -59.589,48.3 -115.789,104.5 -165.289,168.8 -49.429,64.2 -92.039,136 -125.777,213.8 -67.141,155.2 -99.852,335.7 -76.137,520.1 12.004,91.9 38.305,184.3 81.321,271.2 42.851,86.8 101.218,167.1 171.972,237 70.797,69.8 153.813,129.9 247.196,173.2 93.06,43.6 195.89,71.6 302.45,77.7 106.69,6.1 215.58,-11.9 317.28,-52.2 101.6,-40.2 196.13,-105.3 268.71,-192.4 72.1,-88 118.95,-197 131.4,-311.9 6.09,-57.4 3.75,-116.3 -8.55,-173.7 -12.71,-57.1 -35.95,-112.9 -68.65,-162.2 -32.4,-49.5 -74.68,-92.1 -122.41,-127 -47.72,-35 -102.52,-60.9 -160.59,-75.4 -115.55,-30.2 -248.05,-6.8 -340.49,74.1 -22.87,20.1 -42.99,43.8 -58.33,70.4 -15.42,26.9 -25.34,56.5 -29.98,86.8 -9.34,60.1 2.32,124.6 38.35,174.6 17.8,24.7 41.39,46.1 69.46,58.6 27.83,12.6 58.37,17.9 88.35,16.6 29.96,-1.3 59.76,-9.2 85.49,-24.4 25.74,-15 47.32,-37.2 59.71,-63.9 0,0 -1.86,2.9 -5.5,8.7 -3.3,5.9 -9.67,13.8 -18.79,23.3 -9.64,9 -22.35,19.6 -39.93,27.9 -17.45,8.2 -39.11,14.9 -64.17,16.8 -24.94,1.8 -53.37,-1 -81.6,-12 -28.05,-11.1 -54.85,-31.6 -74,-61.2 -19.22,-29.3 -31.22,-66.6 -31.93,-106.7 -1.16,-40 8.33,-83.2 31.1,-120.9 45.25,-76.4 142.99,-128.9 249.49,-130.7 53.23,-0.5 108.7,10.9 160.86,34.9 26.17,11.9 51.18,27.3 75.29,44.5 23.41,18.2 46.42,37.9 66.43,61 40.48,45.6 72.54,100.8 89.52,162.2 17.62,61.5 20.63,128.7 10.62,195.5 -11.1,66.6 -34.57,133.3 -72.29,192.8 -36.83,59.8 -87.95,112.2 -148.51,154 -60.32,42.1 -130.25,73.3 -204.53,91.8 -37.13,9.4 -75.37,15.6 -114.1,18.5 -9.69,0.4 -19.39,1.2 -29.12,1.4 l -29.26,-0.4 c -9.76,-0.2 -19.55,0 -29.33,-0.6 l -29.36,-3 c -156.86,-16.5 -312.223,-90 -434.833,-203.9 -61.429,-56.7 -114.734,-123.7 -155.3,-198.3 -40.793,-74.4 -68.489,-156.4 -82.719,-242.1 -14.254,-85.6 -15.012,-174.4 -2.961,-262.3 12.488,-87.9 38.016,-174.7 75.133,-256.7 37.148,-81.9 86.113,-159.1 145.8,-227.5 60.379,-68 131.208,-127.6 209.012,-177.2 155.538,-99.8 339.638,-157.3 526.728,-170.1 93.62,-6.7 188.15,-0.5 281.06,16.3 92.89,16.7 184.08,44 271.59,80.3 174.79,73.5 334.28,182.7 468.13,316.2"
           style="display:inline;fill:#3f3b3c;fill-opacity:1;fill-rule:nonzero;stroke:none"
           transform="matrix(0.13333333,0,0,-0.13333333,0,4000)" />
        <path
           id="path515"
           d="m 2366.57,2346.2 c 0,0 -11.28,-19 -32.91,-55.6 -22.16,-36.2 -54.96,-89.8 -101.53,-156.9 -46.71,-66.8 -107.15,-147.5 -188.97,-232.7 -82.01,-85 -184.84,-174.1 -313.02,-254.6 -128.69,-79.8 -286.03,-147.4 -467.06,-173.9 -90.24,-13 -186.35,-15.8 -283.975,-0.7 -24.304,4.2 -48.988,7.5 -73.242,14.2 -12.187,3 -24.422,6 -36.703,9 -12.047,3.9 -24.14,7.8 -36.277,11.7 -48.641,15.2 -96.574,36.6 -142.535,63.8 -45.801,27.3 -89.508,61.5 -126.176,104.1 -36.863,42.5 -65.559,94.1 -80.981,150 -15.593,55.8 -17.886,117.6 -0.23,175.9 17.508,59 56.844,110.3 107.93,144.1 50.964,33.5 117.07,49.6 179.246,32.1 61.457,-18.8 109.355,-67.3 130.64,-125.7 10.301,-29.3 13.356,-61.8 6.289,-92.6 -5.996,-30.8 -26.496,-59.2 -51.949,-76.1 -12.754,-8.8 -26.976,-15 -41.504,-19.7 -14.8,-3.8 -30,-6.3 -45.277,-5.4 -15.176,1.2 -30.289,4.8 -43.481,12.3 -13.031,7.9 -23.277,19.3 -30.277,32.3 0,0 1.063,-1.4 3.149,-4.1 2.296,-2.5 4.57,-7.2 9.918,-11.3 9.203,-9.3 27.152,-19.7 52.332,-20.7 12.445,-0.8 26.527,1 41.054,5.6 14.567,4.4 29.774,11.9 43.485,23 13.703,11 26.172,25.6 33.242,43.5 6.93,18.1 9.801,39.5 6.945,61.1 -5.394,43.4 -33.324,89.1 -76.945,117.3 -21.742,14.3 -47.297,22.5 -74.238,23.4 -27.215,1.3 -55.454,-5.6 -81.832,-18.3 -52.387,-25.9 -98.141,-77.6 -111.918,-140.4 -14.86,-63.2 -1.567,-136.1 34.527,-198.7 35.758,-62.5 95.394,-114.6 165.836,-152.1 35.32,-18.7 73.207,-34.9 113.265,-46.9 19.957,-6.2 39.93,-12.8 60.735,-16.9 10.301,-2.4 20.633,-4.8 31,-7.2 10.515,-1.8 21.062,-3.5 31.644,-5.2 84.633,-13.3 173.373,-14.7 262.403,-3.5 89.04,11.3 178.32,33.9 265.2,66.3 87.16,32.2 170.93,75.2 250.95,126.4 40.53,25.2 79.47,52.9 118.15,81.2 37.98,29 75.79,58.6 111.52,90.7 72.43,63.1 138.86,133.3 202.1,206 62.73,73.1 121.92,149.1 179.47,225.2"
           style="display:inline;fill:#3f3b3c;fill-opacity:1;fill-rule:nonzero;stroke:none"
           transform="matrix(0.13333333,0,0,-0.13333333,0,4000)" />
        <path
           id="path516"
           d="m 1348.41,3320.5 c 0,0 5.99,0.7 16.29,2 10.4,1.1 25.24,2.6 43.54,3 18.28,0.3 40.17,-0.3 64.46,-5.4 12.12,-2.6 24.81,-6.3 37.59,-11.6 12.59,-5.1 26.31,-13 38.15,-22.1 24.03,-18.3 44.5,-43.6 55.46,-74.1 5.48,-15.1 8.54,-31.4 8.47,-47.6 -0.19,-16.2 -3.64,-31.9 -9.23,-45.5 -11.7,-27.7 -32.34,-44.7 -50.77,-50.3 -18.73,-5.7 -34.16,-0.1 -42.84,12 0,0 -0.93,1.7 -1.8,4.7 -0.88,3.1 -1.69,7.5 -2.02,12.7 -0.75,10.5 -0.04,24.1 0.39,38.3 0.38,7.3 0.01,14.2 -0.26,22.5 -0.65,8.2 -0.98,19.2 -7.08,36.1 -2.96,8.3 -7.5,17.7 -13.89,27.6 -3.09,5.1 -6.95,9.9 -11.07,15 -4.75,5.2 -9.96,10.7 -16.16,16.1 -24.17,22 -62.72,43.1 -109.23,66.6"
           style="display:inline;fill:#3f3b3c;fill-opacity:1;fill-rule:nonzero;stroke:none"
           transform="matrix(0.13333333,0,0,-0.13333333,0,4000)" />
        <path
           id="path517"
           d="m 799.348,1482.7 c 0,0 -1.387,-6.1 -3.996,-17.3 -1.442,-5.7 -3.258,-12.7 -4.297,-20.7 -1.11,-8 -3.492,-17.7 -3.946,-27.9 -0.957,-10.3 -2.16,-21.9 -1.836,-33.9 -0.566,-12.6 0.75,-25.2 1.747,-39.3 3.238,-27.2 9.703,-57.3 21.503,-87.8 0,0 4.426,-3.3 12.582,-9.5 3.93,-3.2 9.231,-6.6 15.594,-10.3 6.305,-3.8 13.266,-8.4 21.989,-12.2 8.417,-4.2 17.789,-8.6 28.679,-12.2 10.403,-4.3 22.672,-7.2 35.36,-10.6 26.035,-5.6 56.421,-9.2 90.553,-7.8 67.73,2.7 148.2,24.9 226.65,62.6 78.68,37.3 155.29,88.8 222.13,143.2 0,0 -6.72,-4.9 -18.88,-13.6 -6.01,-4.4 -13.59,-9.5 -22.35,-15.3 -8.7,-6 -18.79,-12.4 -29.98,-19.3 -44.47,-27.7 -108.34,-61.3 -178.21,-83.4 -69.57,-22.2 -145.09,-29.9 -203.05,-15.3 -58.25,14.4 -97.965,50.3 -117.535,84.2 0,0 -1.43,0.3 -3.571,1.5 -2.23,1.1 -5.496,2.7 -9.629,4.8 -4.226,2.1 -9.367,4.7 -14.453,8.6 -5.238,3.8 -11.648,7.8 -17.156,13.6 -2.945,2.8 -6,5.8 -9.16,8.8 -2.832,3.3 -5.547,7 -8.473,10.7 -6.316,7.3 -10.457,16.6 -15.824,26.1 -8.66,20 -14.426,44.5 -14.441,72.3"
           style="display:inline;fill:#231f20;fill-opacity:1;fill-rule:nonzero;stroke:none"
           transform="matrix(0.13333333,0,0,-0.13333333,0,4000)" />
        <path
           id="path518"
           d="m 663.258,1065.1 c 0,0 3.269,-1.5 9.515,-4.4 5.95,-3.1 14.715,-7.6 26.133,-13.5 22.793,-11.3 55.414,-27.5 97.735,-45.3 0,0 4.629,1 13.144,3 8.539,2.1 20.778,4.4 36.305,8.6 31.027,8.3 74.562,21.5 124.148,41.7 49.602,20.3 105.062,47.9 159.552,81.2 54.56,33.2 107.95,72 155.26,111.6 0,0 -4.84,-3.3 -13.61,-9.4 -8.86,-5.9 -21.16,-15.4 -37.33,-25 -31.57,-20.6 -76.87,-44.9 -126.86,-65.7 -50.04,-20.7 -104.92,-36.6 -154.844,-44.1 -50.027,-7.7 -94.707,-7 -127.054,-1.9 0,0 -5.047,-2.1 -13.657,-5.7 -8.648,-3.2 -21.593,-8.9 -36.675,-13.2 -30.54,-9.8 -71.727,-18.1 -111.762,-17.9"
           style="display:inline;fill:#231f20;fill-opacity:1;fill-rule:nonzero;stroke:none"
           transform="matrix(0.13333333,0,0,-0.13333333,0,4000)" />
        <path
           id="path519"
           d="m 1568.63,712.5 c 0,0 -5.64,0.102 -16.21,0.402 -5.2,0.2 -11.53,0.5 -18.43,2.098 -6.89,1.5 -15.03,2.301 -22.96,5.5 -8.13,2.801 -16.87,5.898 -25.18,11 -8.76,4.301 -16.75,10.902 -25,17.5 -15.72,14.5 -29.7,33.699 -38.75,57.602 0,0 -3.56,2.296 -10.11,6.699 -3.45,2.101 -7.2,5.199 -11.46,9 -4.31,3.699 -9.57,7.801 -14.32,13.402 -5.12,5.297 -10.65,11.297 -15.68,18.695 -5.7,6.903 -10.28,15.504 -15.59,24.5 -9.52,18.602 -18.07,41.301 -22.5,68.602 -9.02,55 -1.08,128.2 26.49,205.1 27.1,76.8 72.45,156.1 125.29,224.1 0,0 -5.31,-6.4 -14.92,-18.1 -4.92,-5.8 -10.54,-13.1 -17.12,-21.6 -6.71,-8.4 -13.95,-18.2 -21.85,-29.2 -31.81,-43.5 -72,-106.7 -103.69,-180.1 -31.63,-73.2 -52.31,-156.899 -48.22,-231.399 3.93,-74.699 32.65,-134.301 64.07,-174.102 0,0 1.42,-0.898 4.59,-1.898 3.08,-1.102 7.59,-2.699 13.3,-4.699 5.63,-2.102 12.43,-4.602 20.87,-6.5 8.29,-2.102 17.19,-4.903 27.9,-6.301 5.19,-0.903 10.59,-1.801 16.16,-2.801 5.79,-0.5 11.77,-1 17.9,-1.5 11.88,-1.5 25.66,-0.598 38.9,-0.699 27.63,1.597 57.18,6.5 86.52,14.699"
           style="display:inline;fill:#231f20;fill-opacity:1;fill-rule:nonzero;stroke:none"
           transform="matrix(0.13333333,0,0,-0.13333333,0,4000)" />
        <path
           id="path520"
           d="m 1150.28,576.898 c 0,0 0.01,4.004 0.01,11.805 0.33,7.797 0.22,18.797 2.22,33.297 3.84,28.902 13.45,70.801 35.61,118 0,0 -0.37,3.602 -1.04,10.199 -0.48,6.801 -1.96,16.403 -2.31,29.102 -0.86,25.398 -0.15,62.301 7.29,107.597 7.66,45.204 22.6,98.602 46.53,153.502 23.73,54.8 56.65,110.8 94.73,159.4 0,0 -3.86,-4.6 -10.84,-12.9 -6.81,-8.4 -17.66,-20 -29.17,-35.5 -24.54,-30.3 -55.05,-74.5 -84.58,-125.3 -29.46,-50.901 -56.61,-108.698 -76.9,-164.401 -20.58,-55.699 -34.16,-109.097 -43.84,-151.5 0,0 7.52,-18.301 18.16,-44.199 10.94,-26 27.79,-58.098 44.13,-89.102"
           style="display:inline;fill:#231f20;fill-opacity:1;fill-rule:nonzero;stroke:none"
           transform="matrix(0.13333333,0,0,-0.13333333,0,4000)" />
        <path
           id="path521"
           d="m 660.906,575.5 c 0,0 93.192,74.5 242.715,150.5 0,0 286.499,370.1 540.129,632.6 0,0 -417.61,-380.299 -632.047,-541.901 0,0 -65.683,-125.898 -150.797,-241.199"
           style="display:inline;fill:#231f20;fill-opacity:1;fill-rule:nonzero;stroke:none"
           transform="matrix(0.13333333,0,0,-0.13333333,0,4000)" />
      </g>
    </g>
  </g>
</svg>
